# Blender v2.77 (sub 0) OBJ File: 'plants.blend'
# www.blender.org
mtllib plant1.mtl
o leaf3.001_Plane.008
v -0.969259 0.150342 -0.113314
v -0.638977 0.296825 -0.691744
v -0.797072 0.301779 -0.378703
v -0.725339 0.157425 0.027757
v -0.492480 0.092929 0.144386
v -0.289318 -0.042603 0.226069
v 0.040964 0.103879 -0.352361
v -0.162198 0.239411 -0.434043
v -0.395057 0.303908 -0.550672
v -0.117130 0.108833 -0.039320
v -0.320292 0.244365 -0.115374
v -0.553151 0.308862 -0.237631
v -0.172080 -0.151463 0.265444
v 0.158202 -0.004980 -0.312986
v 0.000108 -0.000026 0.000055
v -0.136981 0.443501 -0.632027
v 0.386516 0.447645 -0.514913
v 0.105849 0.578277 -0.493602
v -0.194484 0.448343 -0.375164
v -0.231670 0.320497 -0.204420
v -0.243822 0.066861 -0.141129
v 0.279675 0.071005 -0.024014
v 0.291827 0.324641 -0.087306
v 0.329013 0.452487 -0.258049
v -0.000991 0.201637 -0.002703
v 0.011160 0.454446 -0.055383
v 0.048346 0.583119 -0.236739
v -0.242876 -0.134908 -0.138217
v 0.280621 -0.130764 -0.021102
v -0.000046 -0.000132 0.000208
v 0.004930 0.428134 0.694637
v -0.491431 0.352812 0.527966
v -0.241346 0.561186 0.528480
v 0.083289 0.442015 0.455004
v 0.155183 0.324430 0.275171
v 0.213809 0.081864 0.165721
v -0.282552 0.006542 -0.000950
v -0.341179 0.249108 0.108500
v -0.413072 0.366693 0.288332
v -0.032467 0.214916 -0.000436
v -0.091093 0.457482 0.109014
v -0.162987 0.575068 0.288847
v 0.246270 -0.133046 0.166171
v -0.250091 -0.208368 -0.000501
v -0.000006 0.000007 0.000014
v 0.744591 0.085952 -0.162774
v 0.671399 0.085952 0.360741
v 0.707995 0.239163 0.098984
v 0.528907 0.234301 -0.192928
v 0.319121 0.214572 -0.222258
v 0.138133 0.022778 -0.247562
v 0.064941 0.022778 0.275953
v 0.245930 0.210777 0.304247
v 0.455715 0.234301 0.330587
v 0.101537 0.175990 0.014196
v 0.282525 0.367784 0.039499
v 0.492311 0.387513 0.068829
v 0.036038 -0.153212 -0.261835
v -0.037153 -0.153212 0.261679
v -0.000557 0.000000 -0.000078
v 0.204593 0.132930 0.745243
v -0.326141 0.186443 0.688322
v -0.043358 0.306268 0.707784
v 0.241210 0.246453 0.510551
v 0.259526 0.201518 0.300009
v 0.256836 0.000560 0.133685
v -0.273898 0.054073 0.076764
v -0.271208 0.250291 0.243288
v -0.289524 0.299966 0.453630
v 0.008885 0.181381 0.087678
v 0.011575 0.375477 0.269004
v -0.006741 0.404518 0.492621
v 0.247974 -0.180852 0.045759
v -0.282759 -0.127339 -0.011163
v 0.000023 -0.000031 -0.000248
v -0.409606 0.147723 0.692530
v -0.732526 0.269013 0.245427
v -0.528456 0.302733 0.538414
v -0.201237 0.212758 0.559678
v -0.035749 0.152845 0.423901
v 0.071448 -0.035126 0.295485
v -0.251472 0.086164 -0.151618
v -0.358669 0.254821 0.019120
v -0.524158 0.330928 0.123518
v -0.047403 0.160922 0.077891
v -0.154600 0.346630 0.206307
v -0.320088 0.389236 0.359593
v 0.118929 -0.196069 0.217532
v -0.203991 -0.074780 -0.229571
v 0.000078 -0.000022 -0.000063
v -0.758986 0.143468 -0.070396
v -0.528310 0.155072 -0.546296
v -0.650677 0.338889 -0.307129
v -0.562570 0.268070 0.027848
v -0.371616 0.192076 0.151306
v -0.204979 -0.005380 0.194510
v 0.025697 0.006224 -0.281390
v -0.140940 0.224150 -0.356848
v -0.331894 0.279674 -0.448052
v -0.096670 0.190041 -0.042223
v -0.263306 0.407967 -0.117681
v -0.454261 0.463491 -0.208885
v -0.108324 -0.195421 0.236727
v 0.122352 -0.183817 -0.239174
v -0.000014 -0.000000 -0.000007
v 0.196374 0.147723 -0.780263
v 0.632840 0.269013 -0.443105
v 0.372058 0.343771 -0.605312
v 0.034241 0.212758 -0.593771
v -0.085944 0.152845 -0.416634
v -0.152319 -0.035125 -0.263088
v 0.284147 0.086164 0.074070
v 0.350522 0.274134 -0.079475
v 0.470707 0.334047 -0.256612
v 0.023365 0.160922 -0.088137
v 0.089740 0.348892 -0.241682
v 0.209924 0.408805 -0.418819
v -0.175741 -0.196069 -0.174869
v 0.260725 -0.074780 0.162290
v -0.000057 -0.000022 0.000082
v 0.044340 0.058432 0.976551
v -0.604487 0.073392 0.766969
v -0.278878 0.169971 0.875487
v 0.133657 0.131853 0.705281
v 0.216494 0.106120 0.446998
v 0.284946 -0.009497 0.226829
v -0.363880 0.005464 0.017247
v -0.432333 0.121081 0.237416
v -0.515169 0.146814 0.495699
v -0.038271 0.102042 0.125765
v -0.106724 0.217659 0.345935
v -0.189561 0.243392 0.604218
v 0.323212 -0.111540 0.101083
v -0.325615 -0.096579 -0.108499
v -0.000006 -0.000001 0.000020
v 0.897322 0.150342 0.383559
v 0.416550 0.296825 0.844564
v 0.656936 0.301779 0.589215
v 0.703428 0.157425 0.179100
v 0.513208 0.092929 0.001218
v 0.341555 -0.042603 -0.134731
v -0.139217 0.103879 0.326274
v 0.032436 0.239411 0.462222
v 0.222656 0.303908 0.640105
v 0.101169 0.108833 0.070925
v 0.272822 0.240866 0.216338
v 0.463042 0.308862 0.384757
v 0.240298 -0.151463 -0.205739
v -0.240474 -0.004980 0.255265
v -0.000088 -0.000026 -0.000083
v 0.901682 0.118488 -0.383694
v 0.923439 0.186520 0.294555
v 0.901558 0.238168 -0.052809
v 0.614785 0.162385 -0.378894
v 0.345953 0.119623 -0.365982
v 0.123364 -0.009436 -0.345896
v 0.145121 0.058596 0.332353
v 0.367710 0.187655 0.312268
v 0.636542 0.230417 0.299355
v 0.123240 0.110244 -0.015011
v 0.345829 0.239303 -0.035097
v 0.614661 0.282065 -0.048009
v -0.000189 -0.119719 -0.330871
v 0.021567 -0.051687 0.347378
v -0.000314 -0.000039 0.000014
v -0.341000 0.047132 -0.922328
v 0.341000 0.047132 -0.922328
v -0.000000 0.131146 -0.922328
v -0.341000 0.128480 -0.641349
v -0.341000 0.117661 -0.368055
v -0.341000 0.012490 -0.132275
v 0.341000 0.012490 -0.132275
v 0.341000 0.117661 -0.368055
v 0.341000 0.128480 -0.641349
v 0.000000 0.096504 -0.132275
v -0.000000 0.201675 -0.368055
v -0.000000 0.212494 -0.641349
v -0.341000 -0.084014 0.000726
v 0.341000 -0.084014 0.000726
v 0.000000 0.000000 0.000726
vt 0.5000 0.7500
vt 1.0000 0.7500
vt 1.0000 1.0000
vt 0.5000 1.0000
vt 0.0000 0.7500
vt 0.0000 1.0000
vt 0.0000 0.0891
vt 0.5000 0.0891
vt 0.5000 0.2500
vt 0.0000 0.2500
vt 0.5000 0.5000
vt 0.0000 0.5000
vt 1.0000 0.0891
vt 1.0000 0.2500
vt 1.0000 0.5000
vt 0.5000 0.7500
vt 1.0000 0.7500
vt 1.0000 1.0000
vt 0.5000 1.0000
vt 0.0000 0.7500
vt 0.0000 1.0000
vt 0.0000 0.0891
vt 0.5000 0.0891
vt 0.5000 0.2500
vt 0.0000 0.2500
vt 0.5000 0.5000
vt 0.0000 0.5000
vt 1.0000 0.0891
vt 1.0000 0.2500
vt 1.0000 0.5000
vt 0.5000 0.7500
vt 1.0000 0.7500
vt 1.0000 1.0000
vt 0.5000 1.0000
vt 0.0000 0.7500
vt 0.0000 1.0000
vt 0.0000 0.0891
vt 0.5000 0.0891
vt 0.5000 0.2500
vt 0.0000 0.2500
vt 0.5000 0.5000
vt 0.0000 0.5000
vt 1.0000 0.0891
vt 1.0000 0.2500
vt 1.0000 0.5000
vt 0.5000 0.7500
vt 1.0000 0.7500
vt 1.0000 1.0000
vt 0.5000 1.0000
vt 0.0000 0.7500
vt 0.0000 1.0000
vt 0.0000 0.0891
vt 0.5000 0.0891
vt 0.5000 0.2500
vt 0.0000 0.2500
vt 0.5000 0.5000
vt 0.0000 0.5000
vt 1.0000 0.0891
vt 1.0000 0.2500
vt 1.0000 0.5000
vt 0.5000 0.7500
vt 1.0000 0.7500
vt 1.0000 1.0000
vt 0.5000 1.0000
vt 0.0000 0.7500
vt 0.0000 1.0000
vt 0.0000 0.0876
vt 0.5000 0.0876
vt 0.5000 0.2500
vt 0.0000 0.2500
vt 0.5000 0.5000
vt 0.0000 0.5000
vt 1.0000 0.0876
vt 1.0000 0.2500
vt 1.0000 0.5000
vt 0.5000 0.7500
vt 1.0000 0.7500
vt 1.0000 1.0000
vt 0.5000 1.0000
vt 0.0000 0.7500
vt 0.0000 1.0000
vt 0.0000 0.0876
vt 0.5000 0.0876
vt 0.5000 0.2500
vt 0.0000 0.2500
vt 0.5000 0.5000
vt 0.0000 0.5000
vt 1.0000 0.0876
vt 1.0000 0.2500
vt 1.0000 0.5000
vt 0.5000 0.7500
vt 1.0000 0.7500
vt 1.0000 1.0000
vt 0.5000 1.0000
vt 0.0000 0.7500
vt 0.0000 1.0000
vt 0.0000 0.0876
vt 0.5000 0.0876
vt 0.5000 0.2500
vt 0.0000 0.2500
vt 0.5000 0.5000
vt 0.0000 0.5000
vt 1.0000 0.0876
vt 1.0000 0.2500
vt 1.0000 0.5000
vt 0.5000 0.7500
vt 1.0000 0.7500
vt 1.0000 1.0000
vt 0.5000 1.0000
vt 0.0000 0.7500
vt 0.0000 1.0000
vt 0.0000 0.0875
vt 0.5000 0.0875
vt 0.5000 0.2500
vt 0.0000 0.2500
vt 0.5000 0.5000
vt 0.0000 0.5000
vt 1.0000 0.0875
vt 1.0000 0.2500
vt 1.0000 0.5000
vt 0.5000 0.7500
vt 1.0000 0.7500
vt 1.0000 1.0000
vt 0.5000 1.0000
vt 0.0000 0.7500
vt 0.0000 1.0000
vt 0.0000 0.0875
vt 0.5000 0.0875
vt 0.5000 0.2500
vt 0.0000 0.2500
vt 0.5000 0.5000
vt 0.0000 0.5000
vt 1.0000 0.0875
vt 1.0000 0.2500
vt 1.0000 0.5000
vt 0.5000 0.7500
vt 1.0000 0.7500
vt 1.0000 1.0000
vt 0.5000 1.0000
vt 0.0000 0.7500
vt 0.0000 1.0000
vt 0.0000 0.0875
vt 0.5000 0.0875
vt 0.5000 0.2500
vt 0.0000 0.2500
vt 0.5000 0.5000
vt 0.0000 0.5000
vt 1.0000 0.0875
vt 1.0000 0.2500
vt 1.0000 0.5000
vt 0.5000 0.7500
vt 1.0000 0.7500
vt 1.0000 1.0000
vt 0.5000 1.0000
vt 0.0000 0.7500
vt 0.0000 1.0000
vt 0.0000 0.0895
vt 0.5000 0.0895
vt 0.5000 0.2500
vt 0.0000 0.2500
vt 0.5000 0.5000
vt 0.0000 0.5000
vt 1.0000 0.0895
vt 1.0000 0.2500
vt 1.0000 0.5000
vt 0.5000 0.7500
vt 1.0000 0.7500
vt 1.0000 1.0000
vt 0.5000 1.0000
vt 0.0000 0.7500
vt 0.0000 1.0000
vt 0.0000 0.0895
vt 0.5000 0.0895
vt 0.5000 0.2500
vt 0.0000 0.2500
vt 0.5000 0.5000
vt 0.0000 0.5000
vt 1.0000 0.0895
vt 1.0000 0.2500
vt 1.0000 0.5000
vn -0.0085 0.9706 0.2403
vn 0.1014 0.9942 0.0351
vn -0.0154 0.9996 -0.0236
vn -0.1288 0.9763 0.1737
vn -0.1267 0.8937 0.4303
vn -0.2355 0.9020 0.3619
vn 0.3995 0.6603 0.6359
vn 0.5090 0.7192 0.4728
vn 0.4434 0.7758 0.4489
vn 0.3375 0.7047 0.6241
vn 0.2429 0.8964 0.3706
vn 0.1313 0.8191 0.5585
vn 0.5972 0.7479 0.2897
vn 0.5434 0.7979 0.2608
vn 0.3566 0.9197 0.1641
vn 0.1405 0.9753 0.1704
vn -0.1462 0.9792 -0.1409
vn -0.2950 0.9535 0.0617
vn -0.0428 0.9211 0.3869
vn 0.3624 0.7857 0.5013
vn 0.1734 0.7744 0.6084
vn 0.9167 0.3571 -0.1790
vn 0.7792 0.4441 -0.4423
vn 0.7123 0.5843 -0.3887
vn 0.9003 0.4198 -0.1146
vn 0.4979 0.8493 -0.1754
vn 0.7471 0.6450 0.1604
vn 0.5669 0.4885 -0.6632
vn 0.4830 0.5843 -0.6522
vn 0.2015 0.8356 -0.5110
vn -0.1837 0.9764 -0.1134
vn 0.1930 0.9715 0.1375
vn 0.3101 0.9487 -0.0613
vn -0.0048 0.9429 -0.3330
vn -0.4870 0.7825 -0.3878
vn -0.3188 0.7739 -0.5471
vn -0.8283 0.3571 0.4316
vn -0.6218 0.4441 0.6451
vn -0.5988 0.5580 0.5745
vn -0.8313 0.4188 0.3654
vn -0.4641 0.8330 0.3011
vn -0.7694 0.6359 0.0600
vn -0.3556 0.4885 0.7968
vn -0.3144 0.5625 0.7647
vn -0.1167 0.8173 0.5643
vn 0.0718 0.9695 -0.2341
vn -0.0883 0.9937 -0.0687
vn 0.0081 0.9996 0.0270
vn 0.1728 0.9763 -0.1300
vn 0.2320 0.8957 -0.3793
vn 0.3284 0.9020 -0.2802
vn -0.2027 0.6603 -0.7231
vn -0.3540 0.7192 -0.5978
vn -0.2903 0.7816 -0.5521
vn -0.1448 0.7140 -0.6850
vn -0.1317 0.8997 -0.4162
vn 0.0217 0.8261 -0.5630
vn -0.4905 0.7479 -0.4472
vn -0.4398 0.8019 -0.4043
vn -0.2887 0.9199 -0.2652
vn -0.0771 0.9484 0.3075
vn 0.4227 0.8433 0.3320
vn 0.4256 0.9015 0.0782
vn -0.0035 0.9998 -0.0196
vn -0.5359 0.8356 0.1205
vn -0.4319 0.8947 -0.1135
vn -0.4994 0.0101 0.8663
vn -0.2184 0.0130 0.9758
vn -0.2176 0.1476 0.9648
vn -0.5334 0.0852 0.8415
vn -0.1768 0.5866 0.7903
vn -0.6260 0.4508 0.6362
vn 0.0825 0.0147 0.9965
vn 0.1232 0.0891 0.9883
vn 0.2917 0.4570 0.8402
vn 0.0920 0.9863 0.1369
vn -0.3776 0.9225 0.0800
vn -0.3768 0.8602 0.3436
vn 0.0457 0.9009 0.4315
vn 0.5320 0.8267 0.1828
vn 0.4652 0.7693 0.4379
vn 0.4275 0.3773 -0.8215
vn 0.1388 0.4264 -0.8938
vn 0.1412 0.5734 -0.8070
vn 0.4610 0.4522 -0.7635
vn 0.1364 0.8869 -0.4413
vn 0.5560 0.7111 -0.4303
vn -0.1625 0.4368 -0.8848
vn -0.1943 0.5210 -0.8311
vn -0.3022 0.7993 -0.5193
vn -0.0089 0.9950 -0.0995
vn 0.0049 0.9891 0.1468
vn 0.1520 0.9789 0.1360
vn 0.1487 0.9834 -0.1034
vn -0.0107 0.9403 -0.3401
vn 0.1369 0.9315 -0.3369
vn -0.6609 0.7056 -0.2555
vn -0.6685 0.7418 -0.0529
vn -0.5837 0.8095 -0.0625
vn -0.5889 0.7599 -0.2751
vn -0.3330 0.9392 -0.0835
vn -0.3423 0.8835 -0.3197
vn -0.6478 0.7465 0.1518
vn -0.5751 0.8031 0.1556
vn -0.3269 0.9315 0.1591
vn -0.0426 0.9563 -0.2892
vn -0.5909 0.7101 -0.3829
vn -0.6314 0.7582 -0.1625
vn -0.1524 0.9883 0.0074
vn 0.4910 0.8706 -0.0306
vn 0.3739 0.9108 0.1750
vn 0.5891 0.0873 -0.8033
vn 0.3118 0.0451 -0.9490
vn 0.2471 0.3039 -0.9201
vn 0.6247 0.2209 -0.7490
vn 0.1306 0.6956 -0.7064
vn 0.6442 0.6000 -0.4743
vn 0.0034 -0.0016 -1.0000
vn -0.0988 0.1211 -0.9877
vn -0.3880 0.4677 -0.7941
vn -0.1172 0.9925 -0.0339
vn 0.1378 0.8181 -0.5582
vn -0.1484 0.7459 -0.6493
vn -0.4525 0.8695 -0.1981
vn -0.3594 0.7953 0.4881
vn -0.6157 0.7224 0.3146
vn 0.6071 0.4537 0.6523
vn 0.7823 0.4848 0.3910
vn 0.7271 0.5863 0.3572
vn 0.5613 0.4984 0.6607
vn 0.4302 0.8743 0.2247
vn 0.2759 0.6844 0.6748
vn 0.8794 0.4674 0.0907
vn 0.8568 0.5137 0.0435
vn 0.6751 0.7100 -0.2002
vn -0.0028 0.9968 0.0800
vn -0.2812 0.9596 -0.0103
vn -0.3256 0.9342 0.1456
vn -0.0563 0.9682 0.2435
vn 0.2739 0.9468 0.1690
vn 0.2176 0.9217 0.3211
vn 0.4175 0.7635 -0.4926
vn 0.2050 0.7896 -0.5784
vn 0.1791 0.8509 -0.4938
vn 0.4106 0.8093 -0.4199
vn 0.1020 0.9636 -0.2471
vn 0.3686 0.9138 -0.1703
vn -0.0183 0.7736 -0.6334
vn -0.0533 0.8200 -0.5698
vn -0.1609 0.9261 -0.3413
vn 0.2236 0.9741 0.0320
vn 0.1716 0.8388 0.5166
vn 0.4430 0.7453 0.4982
vn 0.5575 0.8264 0.0779
vn 0.3103 0.8387 -0.4475
vn 0.5626 0.7453 -0.3576
vn -0.7811 0.4850 -0.3931
vn -0.8545 0.5054 -0.1194
vn -0.7729 0.6255 -0.1068
vn -0.7238 0.5466 -0.4211
vn -0.3940 0.9175 -0.0536
vn -0.3681 0.7790 -0.5075
vn -0.8590 0.4850 0.1638
vn -0.8103 0.5476 0.2084
vn -0.4940 0.7774 0.3894
vn 0.0000 0.9930 -0.1180
vn 0.2375 0.9639 -0.1203
vn 0.2303 0.9347 -0.2706
vn 0.0000 0.9605 -0.2781
vn -0.2375 0.9639 -0.1203
vn -0.2303 0.9347 -0.2706
vn -0.1955 0.7937 0.5759
vn 0.0000 0.8094 0.5873
vn 0.0000 0.8698 0.4933
vn -0.2077 0.8431 0.4960
vn 0.0000 0.9752 0.2214
vn -0.2329 0.9454 0.2277
vn 0.1955 0.7937 0.5759
vn 0.2077 0.8431 0.4960
vn 0.2329 0.9454 0.2277
usemtl Material.002
s 1
f 12/1/1 9/2/2 2/3/3 3/4/4
f 4/5/5 12/1/1 3/4/4 1/6/6
f 13/7/7 15/8/8 10/9/9 6/10/10
f 6/10/10 10/9/9 11/11/11 5/12/12
f 5/12/12 11/11/11 12/1/1 4/5/5
f 15/8/8 14/13/13 7/14/14 10/9/9
f 10/9/9 7/14/14 8/15/15 11/11/11
f 11/11/11 8/15/15 9/2/2 12/1/1
f 87/16/16 84/17/17 77/18/18 78/19/19
f 79/20/20 87/16/16 78/19/19 76/21/21
f 88/22/22 90/23/23 85/24/24 81/25/25
f 81/25/25 85/24/24 86/26/26 80/27/27
f 80/27/27 86/26/26 87/16/16 79/20/20
f 90/23/23 89/28/28 82/29/29 85/24/24
f 85/24/24 82/29/29 83/30/30 86/26/26
f 86/26/26 83/30/30 84/17/17 87/16/16
f 117/31/31 114/32/32 107/33/33 108/34/34
f 109/35/35 117/31/31 108/34/34 106/36/36
f 118/37/37 120/38/38 115/39/39 111/40/40
f 111/40/40 115/39/39 116/41/41 110/42/42
f 110/42/42 116/41/41 117/31/31 109/35/35
f 120/38/38 119/43/43 112/44/44 115/39/39
f 115/39/39 112/44/44 113/45/45 116/41/41
f 116/41/41 113/45/45 114/32/32 117/31/31
f 147/46/46 144/47/47 137/48/48 138/49/49
f 139/50/50 147/46/46 138/49/49 136/51/51
f 148/52/52 150/53/53 145/54/54 141/55/55
f 141/55/55 145/54/54 146/56/56 140/57/57
f 140/57/57 146/56/56 147/46/46 139/50/50
f 150/53/53 149/58/58 142/59/59 145/54/54
f 145/54/54 142/59/59 143/60/60 146/56/56
f 146/56/56 143/60/60 144/47/47 147/46/46
usemtl Material.001
f 27/61/61 24/62/62 17/63/63 18/64/64
f 19/65/65 27/61/61 18/64/64 16/66/66
f 28/67/67 30/68/68 25/69/69 21/70/70
f 21/70/70 25/69/69 26/71/71 20/72/72
f 20/72/72 26/71/71 27/61/61 19/65/65
f 30/68/68 29/73/73 22/74/74 25/69/69
f 25/69/69 22/74/74 23/75/75 26/71/71
f 26/71/71 23/75/75 24/62/62 27/61/61
f 72/76/76 69/77/77 62/78/78 63/79/79
f 64/80/80 72/76/76 63/79/79 61/81/81
f 73/82/82 75/83/83 70/84/84 66/85/85
f 66/85/85 70/84/84 71/86/86 65/87/87
f 65/87/87 71/86/86 72/76/76 64/80/80
f 75/83/83 74/88/88 67/89/89 70/84/84
f 70/84/84 67/89/89 68/90/90 71/86/86
f 71/86/86 68/90/90 69/77/77 72/76/76
f 162/91/91 159/92/92 152/93/93 153/94/94
f 154/95/95 162/91/91 153/94/94 151/96/96
f 163/97/97 165/98/98 160/99/99 156/100/100
f 156/100/100 160/99/99 161/101/101 155/102/102
f 155/102/102 161/101/101 162/91/91 154/95/95
f 165/98/98 164/103/103 157/104/104 160/99/99
f 160/99/99 157/104/104 158/105/105 161/101/101
f 161/101/101 158/105/105 159/92/92 162/91/91
usemtl Material.003
f 42/106/106 39/107/107 32/108/108 33/109/109
f 34/110/110 42/106/106 33/109/109 31/111/111
f 43/112/112 45/113/113 40/114/114 36/115/115
f 36/115/115 40/114/114 41/116/116 35/117/117
f 35/117/117 41/116/116 42/106/106 34/110/110
f 45/113/113 44/118/118 37/119/119 40/114/114
f 40/114/114 37/119/119 38/120/120 41/116/116
f 41/116/116 38/120/120 39/107/107 42/106/106
f 102/121/121 99/122/122 92/123/123 93/124/124
f 94/125/125 102/121/121 93/124/124 91/126/126
f 103/127/127 105/128/128 100/129/129 96/130/130
f 96/130/130 100/129/129 101/131/131 95/132/132
f 95/132/132 101/131/131 102/121/121 94/125/125
f 105/128/128 104/133/133 97/134/134 100/129/129
f 100/129/129 97/134/134 98/135/135 101/131/131
f 101/131/131 98/135/135 99/122/122 102/121/121
f 132/136/136 129/137/137 122/138/138 123/139/139
f 124/140/140 132/136/136 123/139/139 121/141/141
f 133/142/142 135/143/143 130/144/144 126/145/145
f 126/145/145 130/144/144 131/146/146 125/147/147
f 125/147/147 131/146/146 132/136/136 124/140/140
f 135/143/143 134/148/148 127/149/149 130/144/144
f 130/144/144 127/149/149 128/150/150 131/146/146
f 131/146/146 128/150/150 129/137/137 132/136/136
usemtl Material
f 57/151/151 54/152/152 47/153/153 48/154/154
f 49/155/155 57/151/151 48/154/154 46/156/156
f 58/157/157 60/158/158 55/159/159 51/160/160
f 51/160/160 55/159/159 56/161/161 50/162/162
f 50/162/162 56/161/161 57/151/151 49/155/155
f 60/158/158 59/163/163 52/164/164 55/159/159
f 55/159/159 52/164/164 53/165/165 56/161/161
f 56/161/161 53/165/165 54/152/152 57/151/151
f 177/166/166 174/167/167 167/168/168 168/169/169
f 169/170/170 177/166/166 168/169/169 166/171/171
f 178/172/172 180/173/173 175/174/174 171/175/175
f 171/175/175 175/174/174 176/176/176 170/177/177
f 170/177/177 176/176/176 177/166/166 169/170/170
f 180/173/173 179/178/178 172/179/179 175/174/174
f 175/174/174 172/179/179 173/180/180 176/176/176
f 176/176/176 173/180/180 174/167/167 177/166/166
