# Blender v2.78 (sub 0) OBJ File: ''
# www.blender.org
mtllib rock4.mtl
o rocks_6_05.001
v 0.126183 0.325965 -2.095833
v 0.404991 0.304480 -2.017715
v 0.246757 0.055455 -2.014251
v 0.100705 0.131981 -2.061288
v 0.696824 0.424519 -1.855334
v 0.312511 -0.021084 -1.908355
v 0.891325 0.255781 -1.571767
v 0.730583 0.119537 -1.413385
v 0.257357 -0.058011 -1.783381
v 1.226161 0.291138 -1.111328
v 1.318426 0.469056 -1.371158
v 1.417599 1.161141 -1.629056
v 1.524032 0.812169 -1.342352
v -0.146971 0.842133 -2.266328
v 0.206545 1.080234 -2.198931
v 0.614626 1.221121 -2.085802
v 0.646582 1.472963 -2.115839
v 0.884732 1.616138 -2.065366
v 1.118080 1.490383 -1.951041
v 0.875211 1.666733 -2.032459
v 1.291977 1.542171 -1.788262
v 1.549929 0.473168 -0.429090
v 1.435376 0.334990 -0.457937
v 1.467647 0.687357 -0.000677
v 1.266731 0.241750 -0.163135
v 1.421021 0.750449 0.364611
v 1.122676 0.353213 0.287875
v 1.032034 0.104494 0.106291
v 1.041949 0.248343 0.516400
v 0.912537 0.013547 0.371657
v 0.829925 0.115993 0.698000
v 0.616407 -0.128053 0.663518
v 1.076335 0.309407 0.900090
v 0.897255 0.156788 1.191282
v 0.655862 -0.052369 1.218999
v 0.675187 0.352534 1.630344
v 0.838024 0.350736 1.452966
v 1.123913 0.463519 1.050057
v 1.221384 0.692914 1.053403
v 1.379790 0.908953 0.828653
v 1.254972 1.310220 1.260456
v 1.152447 1.280596 1.456733
v 1.028190 0.582352 1.310965
v 0.953721 0.932866 1.651397
v 0.463455 0.854252 2.000541
v 0.403179 0.121968 1.531038
v 0.012408 0.223965 1.661302
v -0.190426 0.356731 1.799269
v 0.168671 0.881986 2.124216
v -0.047927 0.927253 2.181693
v -0.411898 0.502869 1.939202
v 0.357525 1.150013 2.101880
v 0.058346 1.202987 2.224935
v 0.185829 1.692037 2.093221
v -0.096739 1.893229 2.182003
v 0.541602 1.208926 1.922261
v 0.287824 1.807077 1.982105
v -0.107189 2.293520 1.978970
v 0.267697 2.396093 1.751842
v 0.441017 2.526757 1.590220
v 0.139865 2.574326 1.483125
v 0.647395 2.502488 1.529708
v 0.492541 2.331232 1.018297
v -0.219422 2.736539 1.403440
v 0.769615 2.247954 0.917650
v 0.465690 2.347265 0.770064
v 0.885325 2.024773 0.467468
v 0.423841 2.320502 0.586101
v 0.596004 2.181391 0.452432
v 0.475257 2.016443 0.237629
v 1.040006 1.665777 0.161537
v 0.116519 2.286356 0.281325
v 0.068112 2.519120 0.621561
v -0.250011 2.727132 0.993934
v -0.366580 2.637731 0.853446
v -0.027946 2.504764 0.582228
v -0.437924 2.753914 0.476642
v -0.093617 2.552462 0.314581
v -0.052148 2.254022 0.024093
v -0.410511 2.685886 0.031449
v -0.621287 2.540344 0.310581
v -0.518070 2.543100 0.750995
v -0.840326 2.532969 -0.073948
v -0.567653 2.683722 -0.222891
v -0.531294 2.586329 -0.610095
v 0.190494 2.069366 0.090964
v 0.401567 1.824376 -0.219431
v 0.096890 2.173039 -0.519144
v 0.351283 2.074212 -0.877287
v 0.201973 2.148238 -1.149543
v 0.906307 1.650783 -0.311171
v 1.125577 1.486276 -0.344042
v 1.145245 1.718781 -1.099512
v 0.262805 1.999427 -1.532779
v 0.863758 1.674194 -1.597628
v 1.352218 0.984448 -0.307549
v 1.352535 0.839691 -0.432526
v 1.220135 1.504784 -1.212333
v 1.218535 1.614157 -1.403585
v -0.489205 1.264231 2.084589
v -0.826440 1.165681 2.021521
v -0.691259 0.741080 1.936255
v -0.737204 1.621846 2.123827
v -0.413249 2.514768 1.658254
v -0.418349 2.326282 1.861991
v -0.903886 1.953910 1.706395
v -0.768127 1.921028 1.951811
v -0.881633 2.300888 0.723234
v -0.933004 2.428315 -0.519445
v -0.670931 1.837020 -1.503691
v -0.186741 1.916035 -1.554491
v 0.617705 1.729380 -1.861562
v -0.072704 1.692989 -1.684695
v -0.372994 1.593127 -1.690617
v -0.819694 1.601706 -1.574299
v 0.402969 1.560406 -2.003916
v 0.220576 1.203070 -1.960972
v -0.653594 0.965683 -1.697428
v -0.416883 0.916890 -2.038309
v -0.571615 0.675449 -1.843487
v -0.874567 0.537924 -1.490490
v -0.024412 0.071359 -1.866478
v -0.871807 0.101653 -1.240647
v -1.373648 0.612350 -1.059631
v -1.113491 0.701861 -1.426325
v -0.777400 1.108267 -1.529324
v -1.204670 0.897352 -1.259116
v -1.584946 1.341639 -1.135911
v -1.755106 1.137028 -0.639312
v -1.676478 0.821783 -0.671236
v -1.342043 1.705628 -1.031572
v -1.302623 1.662929 -0.492464
v -1.346369 1.929787 -0.565766
v -1.127255 1.511168 0.074107
v -1.222852 2.050009 -0.129874
v -1.251674 1.730319 0.735260
v -1.127897 1.179533 0.672421
v -1.333503 1.104208 0.111802
v -1.310511 0.680942 0.028189
v -0.998811 0.454095 0.638852
v -1.186009 1.688200 0.982160
v -1.034339 1.171169 1.083235
v -1.055477 1.255034 1.512838
v -0.606565 0.170791 1.253965
v -0.643313 0.395641 1.670956
v 0.052716 -0.040818 1.242164
v 0.046284 -0.103184 0.583410
v -0.461420 -0.031490 0.214885
v -0.796298 0.069124 -0.279423
v -0.231012 0.060571 -1.246075
v -0.219259 0.016627 -1.527397
v -0.092339 -0.072546 -1.440710
v -0.029081 -0.039527 -0.941122
v -0.086507 -0.014921 -0.410578
v 0.488393 -0.037414 -0.360792
v 0.444934 0.080101 -1.080942
v 0.940484 0.137841 -0.680888
v 0.605713 -0.076443 0.126451
vt 0.6862 0.5958
vt 0.6903 0.6133
vt 0.6755 0.6096
vt 0.6775 0.5994
vt 0.7032 0.6306
vt 0.6734 0.6187
vt 0.7052 0.6565
vt 0.6940 0.6634
vt 0.6687 0.6215
vt 0.7299 0.6921
vt 0.7289 0.6710
vt 0.7513 0.6404
vt 0.7491 0.6590
vt 0.7024 0.5740
vt 0.7186 0.5853
vt 0.7314 0.6006
vt 0.7416 0.5953
vt 0.7468 0.6041
vt 0.7450 0.6166
vt 0.7535 0.6029
vt 0.7576 0.6227
vt 0.7815 0.6973
vt 0.7742 0.7014
vt 0.8100 0.6944
vt 0.7880 0.7150
vt 0.8293 0.6976
vt 0.8157 0.7225
vt 0.7994 0.7319
vt 0.8255 0.7313
vt 0.8120 0.7425
vt 0.8323 0.7465
vt 0.8249 0.7618
vt 0.8486 0.7335
vt 0.8621 0.7489
vt 0.8582 0.7633
vt 0.8950 0.7604
vt 0.8819 0.7494
vt 0.8600 0.7288
vt 0.8643 0.7174
vt 0.8558 0.7008
vt 0.8871 0.6915
vt 0.8978 0.6962
vt 0.8780 0.7314
vt 0.9051 0.7196
vt 0.9367 0.7332
vt 0.9256 0.7953
vt 0.8767 0.7780
vt 0.8767 0.8034
vt 0.8805 0.8167
vt 0.9218 0.8152
vt 0.9178 0.8281
vt 0.8839 0.8315
vt 0.9418 0.8148
vt 0.9335 0.8330
vt 0.9619 0.8470
vt 0.9569 0.8671
vt 0.9395 0.7076
vt 0.9528 0.7142
vt 0.9664 0.6781
vt 0.9594 0.6688
vt 0.9731 0.8880
vt 0.9750 0.6317
vt 0.9511 0.6285
vt 0.9376 0.6245
vt 0.9429 0.6070
vt 0.9304 0.6296
vt 0.9065 0.6125
vt 0.9505 0.5842
vt 0.8957 0.6268
vt 0.8954 0.6062
vt 0.8689 0.6293
vt 0.8872 0.6014
vt 0.8761 0.6116
vt 0.8620 0.6047
vt 0.8462 0.6410
vt 0.8724 0.5809
vt 0.8970 0.5796
vt 0.9265 0.5690
vt 0.9174 0.5571
vt 0.8950 0.5737
vt 0.8951 0.5461
vt 0.8807 0.5641
vt 0.8588 0.5681
vt 0.8699 0.5393
vt 0.8875 0.5283
vt 0.9126 0.5415
vt 0.8634 0.5113
vt 0.8550 0.5268
vt 0.8328 0.5231
vt 0.8576 0.5864
vt 0.8364 0.5981
vt 0.8274 0.5673
vt 0.8051 0.5762
vt 0.7935 0.5632
vt 0.8259 0.6261
vt 0.8181 0.6422
vt 0.7861 0.6198
vt 0.7728 0.5661
vt 0.7687 0.6022
vt 0.8070 0.6744
vt 0.7963 0.6793
vt 0.7788 0.6269
vt 0.7731 0.6214
vt 0.9153 0.8607
vt 0.8981 0.8725
vt 0.8854 0.8521
vt 0.9205 0.8838
vt 0.9874 0.9293
vt 0.9676 0.9181
vt 0.9600 0.9043
vt 0.9210 0.9155
vt 0.9292 0.9001
vt 0.9659 0.5643
vt 0.9764 0.5176
vt 0.9145 0.5152
vt 0.8314 0.4948
vt 0.7625 0.5223
vt 0.7668 0.5453
vt 0.7598 0.5918
vt 0.7521 0.5534
vt 0.7446 0.5406
vt 0.7461 0.5181
vt 0.7486 0.5849
vt 0.7304 0.5785
vt 0.7055 0.5325
vt 0.7015 0.5553
vt 0.6859 0.5466
vt 0.6767 0.5221
vt 0.6672 0.5896
vt 0.6498 0.5171
vt 0.6850 0.4776
vt 0.6887 0.5049
vt 0.7155 0.5201
vt 0.7021 0.4926
vt 0.7320 0.4715
vt 0.7251 0.4423
vt 0.7026 0.4463
vt 0.7611 0.4773
vt 0.7724 0.4486
vt 0.7897 0.4631
vt 0.8959 0.4529
vt 0.8500 0.4587
vt 0.8612 0.4462
vt 0.8716 0.4770
vt 0.9265 0.4790
vt 0.9356 0.4479
vt 0.9060 0.4284
vt 0.8615 0.4048
vt 0.7244 0.8911
vt 0.7693 0.8766
vt 0.7772 0.9009
vt 0.7273 0.9100
vt 0.8149 0.9008
vt 0.8073 0.8584
vt 0.9413 0.4832
vt 0.9597 0.4571
vt 0.9806 0.4733
vt 0.8437 0.8329
vt 0.8437 0.8964
vt 0.8658 0.8401
vt 0.8754 0.8960
vt 0.8508 0.7954
vt 0.8133 0.7902
vt 0.7864 0.8140
vt 0.7555 0.8280
vt 0.7043 0.8663
vt 0.6995 0.8224
vt 0.7056 0.7852
vt 0.6897 0.7808
vt 0.6964 0.7722
vt 0.7252 0.7752
vt 0.7549 0.7856
vt 0.6711 0.7670
vt 0.6795 0.7496
vt 0.7642 0.7538
vt 0.7060 0.7225
vt 0.7223 0.7426
vt 0.7520 0.7214
vt 0.7932 0.7563
vn -0.1101 -0.2752 -0.9551
vn 0.4394 -0.2631 -0.8589
vn 0.1404 -0.6298 -0.7640
vn -0.4027 -0.3951 -0.8257
vn 0.5666 -0.3333 -0.7535
vn 0.2553 -0.8272 -0.5006
vn 0.5723 -0.6554 -0.4928
vn 0.3794 -0.9240 -0.0470
vn 0.0481 -0.9855 -0.1628
vn 0.5378 -0.8246 -0.1757
vn 0.6841 -0.5508 -0.4781
vn 0.9099 0.0187 -0.4144
vn 0.9648 -0.0722 -0.2530
vn -0.2901 0.1139 -0.9502
vn -0.0648 0.4796 -0.8751
vn 0.1335 -0.0402 -0.9902
vn -0.0785 0.1804 -0.9805
vn 0.2902 0.2881 -0.9126
vn 0.5450 0.0519 -0.8368
vn 0.1814 0.8192 -0.5440
vn 0.7585 0.5329 -0.3752
vn 0.9772 -0.1962 0.0815
vn 0.6477 -0.7615 -0.0239
vn 0.9859 -0.0438 0.1613
vn 0.6421 -0.7485 0.1659
vn 0.9828 -0.1422 0.1181
vn 0.8291 -0.5158 0.2159
vn 0.6206 -0.7808 0.0730
vn 0.8119 -0.5639 0.1513
vn 0.6084 -0.7867 0.1046
vn 0.6781 -0.7173 0.1601
vn 0.3134 -0.9473 0.0662
vn 0.8208 -0.5679 0.0619
vn 0.7182 -0.6277 0.3002
vn 0.3729 -0.8691 0.3249
vn 0.4674 -0.5038 0.7265
vn 0.7114 -0.3859 0.5874
vn 0.8661 -0.4054 0.2926
vn 0.8761 -0.3443 0.3374
vn 0.9865 -0.0229 0.1622
vn 0.9478 0.1776 0.2649
vn 0.7953 0.0620 0.6031
vn 0.7954 -0.3398 0.5020
vn 0.7105 -0.1521 0.6871
vn 0.4467 -0.2950 0.8446
vn 0.1295 -0.7316 0.6693
vn -0.0328 -0.7438 0.6676
vn -0.0297 -0.7426 0.6691
vn 0.2531 -0.4133 0.8747
vn -0.0618 -0.3086 0.9492
vn -0.2087 -0.5807 0.7869
vn 0.5261 0.0207 0.8502
vn 0.1063 -0.0211 0.9941
vn 0.4981 0.2311 0.8358
vn 0.1158 0.2965 0.9480
vn 0.6176 0.1208 0.7772
vn 0.5295 0.2713 0.8037
vn 0.0730 0.5776 0.8130
vn 0.2677 0.6002 0.7537
vn 0.1671 0.8610 0.4803
vn 0.2860 0.9479 0.1402
vn 0.5677 0.7690 0.2939
vn 0.3064 0.9389 -0.1567
vn -0.1248 0.9718 0.2001
vn 0.6486 0.7479 -0.1409
vn 0.4376 0.8880 -0.1413
vn 0.6747 0.6616 -0.3272
vn 0.4335 0.8206 -0.3724
vn 0.3443 0.7860 -0.5136
vn 0.3866 0.7458 -0.5426
vn 0.7559 0.6306 -0.1758
vn 0.5504 0.6847 -0.4778
vn 0.2763 0.8885 -0.3664
vn -0.0999 0.9848 -0.1424
vn -0.3666 0.9302 0.0173
vn 0.3275 0.9064 -0.2667
vn -0.2068 0.9742 0.0908
vn 0.6441 0.7340 -0.2152
vn 0.6639 0.6989 -0.2661
vn 0.2158 0.9533 -0.2112
vn -0.5649 0.8158 0.1239
vn -0.6323 0.7390 0.2325
vn -0.6042 0.7915 0.0920
vn 0.0376 0.9932 -0.1101
vn 0.0480 0.9412 -0.3346
vn 0.5281 0.7495 -0.3992
vn 0.4986 0.8666 -0.0211
vn 0.5914 0.8002 0.0998
vn 0.4431 0.8893 0.1137
vn 0.2848 0.9252 -0.2508
vn 0.4729 0.8793 0.0570
vn 0.8067 0.5860 0.0765
vn 0.7004 0.7137 0.0053
vn 0.0811 0.8504 -0.5198
vn 0.3431 0.9222 -0.1785
vn 0.9594 0.2795 -0.0379
vn 0.9507 0.3094 -0.0196
vn 0.9429 0.3122 0.1164
vn 0.7062 0.7076 -0.0222
vn -0.1781 -0.1454 0.9732
vn -0.6393 -0.1964 0.7434
vn -0.5883 -0.3702 0.7189
vn -0.5171 0.1002 0.8501
vn -0.4883 0.7663 0.4175
vn -0.3858 0.6029 0.6983
vn -0.8346 0.4247 0.3508
vn -0.6183 0.4394 0.6516
vn -0.6926 0.6927 0.2012
vn -0.6064 0.7495 -0.2655
vn -0.3361 0.6043 -0.7224
vn -0.1034 0.6653 -0.7394
vn 0.0589 0.8781 -0.4749
vn -0.1727 0.6157 -0.7688
vn -0.2741 0.3044 -0.9123
vn -0.4296 0.2271 -0.8740
vn -0.2705 0.4496 -0.8513
vn -0.3535 0.4996 -0.7909
vn -0.6274 0.2547 -0.7359
vn -0.6111 0.4287 -0.6655
vn -0.6877 -0.2261 -0.6899
vn -0.5744 -0.3498 -0.7401
vn -0.4504 -0.6956 -0.5598
vn -0.5093 -0.7938 -0.3324
vn -0.7584 -0.5034 -0.4140
vn -0.6577 -0.1593 -0.7363
vn -0.5540 0.1307 -0.8222
vn -0.6240 -0.0192 -0.7812
vn -0.8231 0.2121 -0.5268
vn -0.9891 0.1250 0.0782
vn -0.9038 -0.4229 -0.0650
vn -0.7431 0.5718 -0.3478
vn -0.9440 0.2236 0.2426
vn -0.9525 0.3043 -0.0078
vn -0.9800 0.1199 0.1588
vn -0.9312 0.3428 0.1237
vn -0.9796 0.1402 0.1439
vn -0.9710 -0.1273 0.2023
vn -0.9078 0.1609 0.3873
vn -0.8503 -0.4248 0.3106
vn -0.8205 -0.5091 0.2600
vn -0.9645 0.1357 0.2266
vn -0.9439 -0.2940 0.1502
vn -0.9548 -0.1775 0.2385
vn -0.5846 -0.7603 0.2831
vn -0.6312 -0.6632 0.4023
vn -0.1536 -0.9383 0.3097
vn -0.1261 -0.9915 0.0320
vn -0.3232 -0.9451 0.0490
vn -0.4606 -0.8863 0.0491
vn -0.3084 -0.9490 0.0660
vn -0.3287 -0.9296 -0.1668
vn -0.2565 -0.9662 -0.0267
vn -0.1385 -0.9903 -0.0092
vn -0.0921 -0.9948 -0.0424
vn 0.1330 -0.9850 -0.1102
vn 0.2378 -0.9710 -0.0254
vn 0.3218 -0.9388 -0.1227
vn 0.1827 -0.9782 -0.0991
usemtl rock
s 1
f 1/1/1 2/2/2 3/3/3 4/4/4
f 2/2/2 5/5/5 6/6/6 3/3/3
f 7/7/7 6/6/6 5/5/5
f 6/6/6 7/7/7 8/8/8 9/9/9
f 10/10/10 8/8/8 7/7/7 11/11/11
f 12/12/12 13/13/13 11/11/11 7/7/7
f 1/1/1 14/14/14 15/15/15
f 2/2/2 1/1/1 15/15/15 16/16/16
f 16/16/16 5/5/5 2/2/2
f 17/17/17 18/18/18 19/19/19 16/16/16
f 20/20/20 21/21/21 19/19/19 18/18/18
f 12/12/12 19/19/19 21/21/21
f 5/5/5 16/16/16 19/19/19
f 12/12/12 7/7/7 5/5/5 19/19/19
f 10/10/10 11/11/11 22/22/22 23/23/23
f 11/11/11 13/13/13 22/22/22
f 22/22/22 24/24/24 25/25/25 23/23/23
f 26/26/26 27/27/27 24/24/24
f 25/25/25 24/24/24 27/27/27 28/28/28
f 29/29/29 30/30/30 28/28/28 27/27/27
f 30/30/30 29/29/29 31/31/31 32/32/32
f 33/33/33 31/31/31 29/29/29
f 31/31/31 33/33/33 34/34/34
f 31/31/31 34/34/34 35/35/35 32/32/32
f 36/36/36 35/35/35 34/34/34 37/37/37
f 38/38/38 37/37/37 34/34/34 33/33/33
f 39/39/39 38/38/38 33/33/33 29/29/29
f 39/39/39 29/29/29 27/27/27
f 26/26/26 40/40/40 39/39/39 27/27/27
f 39/39/39 40/40/40 41/41/41 42/42/42
f 38/38/38 39/39/39 43/43/43 37/37/37
f 43/43/43 44/44/44 36/36/36 37/37/37
f 39/39/39 42/42/42 44/44/44 43/43/43
f 36/36/36 44/44/44 45/45/45
f 45/46/45 46/47/46 36/36/36
f 46/47/46 45/46/45 47/48/47
f 45/46/45 48/49/48 47/48/47
f 49/50/49 48/49/48 45/46/45
f 48/49/48 49/50/49 50/51/50 51/52/51
f 52/53/52 49/50/49 45/46/45
f 53/54/53 50/51/50 49/50/49 52/53/52
f 54/55/54 55/56/55 53/54/53 52/53/52
f 56/57/56 52/58/52 45/45/45
f 56/57/56 54/59/54 52/58/52
f 56/57/56 45/45/45 44/44/44
f 54/59/54 56/57/56 57/60/57
f 55/56/55 54/55/54 58/61/58
f 54/59/54 57/60/57 58/62/58
f 59/63/59 60/64/60 61/65/61
f 62/66/62 63/67/63 61/65/61 60/64/60
f 61/65/61 63/67/63 64/68/64
f 63/67/63 65/69/65 66/70/66
f 67/71/67 66/70/66 65/69/65
f 68/72/68 69/73/69 70/74/70
f 67/71/67 71/75/71 70/74/70 69/73/69
f 68/72/68 70/74/70 72/76/72
f 68/72/68 72/76/72 73/77/73
f 66/70/66 68/72/68 73/77/73
f 66/70/66 73/77/73 74/78/74
f 74/78/74 64/68/64 63/67/63 66/70/66
f 75/79/75 74/78/74 73/77/73
f 76/80/76 73/77/73 72/76/72
f 76/80/76 75/79/75 73/77/73
f 75/79/75 76/80/76 77/81/77
f 78/82/78 77/81/77 76/80/76
f 78/82/78 76/80/76 72/76/72
f 79/83/79 80/84/80 78/82/78 72/76/72
f 77/81/77 78/82/78 80/84/80
f 77/81/77 80/84/80 81/85/81
f 77/81/77 81/85/81 82/86/82
f 75/79/75 77/81/77 82/86/82
f 83/87/83 81/85/81 80/84/80 84/88/84
f 80/84/80 79/83/79 84/88/84
f 85/89/85 84/88/84 79/83/79
f 86/90/86 79/83/79 72/76/72 70/74/70
f 79/83/79 86/90/86 87/91/87
f 87/91/87 86/90/86 70/74/70
f 70/74/70 71/75/71 87/91/87
f 88/92/88 85/89/85 79/83/79
f 88/92/88 89/93/89 90/94/90 85/89/85
f 79/83/79 87/91/87 88/92/88
f 88/92/88 87/91/87 89/93/89
f 91/95/91 87/91/87 71/75/71
f 92/96/92 91/95/91 71/75/71
f 89/93/89 87/91/87 91/95/91
f 91/95/91 92/96/92 93/97/93
f 89/93/89 91/95/91 93/97/93
f 90/94/90 89/93/89 93/97/93
f 90/94/90 93/97/93 94/98/94
f 95/99/95 94/98/94 93/97/93
f 95/99/95 21/21/21 20/20/20
f 96/100/96 97/101/97 98/102/98 93/97/93
f 93/97/93 98/102/98 99/103/99
f 99/103/99 95/99/95 93/97/93
f 21/21/21 95/99/95 99/103/99
f 12/12/12 21/21/21 99/103/99 98/102/98
f 13/13/13 12/12/12 98/102/98
f 97/101/97 22/22/22 13/13/13 98/102/98
f 97/101/97 96/100/96 24/24/24 22/22/22
f 96/100/96 93/97/93 92/96/92
f 96/100/96 92/96/92 71/75/71 24/24/24
f 71/75/71 26/26/26 24/24/24
f 71/75/71 40/40/40 26/26/26
f 71/75/71 67/71/67 41/41/41 40/40/40
f 65/69/65 62/66/62 41/41/41 67/71/67
f 42/42/42 41/41/41 62/66/62
f 59/63/59 61/65/61 64/68/64
f 58/62/58 59/63/59 64/68/64
f 59/63/59 58/62/58 57/60/57
f 62/66/62 60/64/60 59/63/59
f 62/66/62 59/63/59 57/60/57
f 56/57/56 44/44/44 42/42/42
f 42/42/42 62/66/62 57/60/57 56/57/56
f 51/52/51 50/51/50 100/104/100
f 100/104/100 101/105/101 102/106/102 51/52/51
f 103/107/103 101/105/101 100/104/100
f 53/54/53 55/56/55 100/104/100 50/51/50
f 103/107/103 100/104/100 55/56/55
f 58/61/58 64/108/64 104/109/104 105/110/105
f 55/56/55 58/61/58 103/107/103
f 105/110/105 104/109/104 106/111/106 107/112/107
f 64/68/64 74/78/74 75/79/75 104/113/104
f 75/79/75 82/86/82 106/114/106
f 106/114/106 104/113/104 75/79/75
f 108/115/108 106/114/106 82/86/82
f 108/115/108 82/86/82 81/85/81
f 81/85/81 83/87/83 108/115/108
f 84/88/84 85/89/85 109/116/109 83/87/83
f 110/117/110 109/116/109 85/89/85 111/118/111
f 90/94/90 94/98/94 111/118/111 85/89/85
f 112/119/112 95/99/95 20/20/20
f 94/98/94 95/99/95 112/119/112
f 17/17/17 112/119/112 20/20/20 18/18/18
f 113/120/113 111/118/111 94/98/94
f 94/98/94 112/119/112 113/120/113
f 111/118/111 113/120/113 114/121/114 110/117/110
f 110/117/110 114/121/114 115/122/115
f 116/123/116 114/121/114 113/120/113 112/119/112
f 117/124/117 16/16/16 15/15/15
f 116/123/116 17/17/17 16/16/16 117/124/117
f 117/124/117 118/125/118 114/121/114 116/123/116
f 118/125/118 119/126/119 120/127/120 121/128/121
f 119/126/119 118/125/118 117/124/117
f 117/124/117 15/15/15 14/14/14 119/126/119
f 120/127/120 119/126/119 14/14/14
f 1/1/1 4/4/4 122/129/122
f 120/127/120 14/14/14 1/1/1
f 122/129/122 120/127/120 1/1/1
f 122/129/122 121/128/121 120/127/120
f 121/128/121 122/129/122 123/130/123
f 121/128/121 123/130/123 124/131/124 125/132/125
f 118/125/118 121/128/121 125/132/125
f 114/121/114 118/125/118 126/133/126
f 126/133/126 115/122/115 114/121/114
f 127/134/127 125/132/125 124/131/124
f 125/132/125 127/134/127 126/133/126 118/125/118
f 115/122/115 126/133/126 127/134/127 128/135/128
f 128/135/128 127/134/127 124/131/124
f 129/136/129 128/135/128 124/131/124 130/137/130
f 131/138/131 132/139/132 133/140/133
f 109/116/109 110/117/110 131/138/131 133/140/133
f 110/117/110 115/122/115 131/138/131
f 115/122/115 128/135/128 131/138/131
f 128/135/128 129/136/129 132/139/132 131/138/131
f 134/141/134 133/142/133 132/143/132
f 133/142/133 134/141/134 135/144/135
f 109/116/109 133/142/133 135/144/135 83/87/83
f 136/145/136 135/144/135 134/141/134 137/146/137
f 138/147/138 137/146/137 134/141/134
f 138/147/138 134/141/134 132/143/132 129/148/129
f 130/149/130 139/150/139 138/151/138 129/152/129
f 137/153/137 138/151/138 139/150/139 140/154/140
f 141/155/141 136/145/136 137/146/137 142/156/142
f 143/157/143 141/155/141 142/156/142
f 140/154/140 144/158/144 142/159/142 137/153/137
f 145/160/145 143/161/143 142/159/142 144/158/144
f 51/52/51 102/106/102 145/160/145
f 102/106/102 101/105/101 143/161/143 145/160/145
f 101/105/101 106/111/106 143/161/143
f 106/114/106 141/155/141 143/157/143
f 108/115/108 136/145/136 141/155/141 106/114/106
f 135/144/135 136/145/136 108/115/108 83/87/83
f 48/49/48 51/52/51 145/160/145
f 144/158/144 47/48/47 48/49/48 145/160/145
f 46/47/46 47/48/47 146/162/146 35/35/35
f 47/48/47 144/158/144 146/162/146
f 32/32/32 35/35/35 146/162/146 147/163/147
f 148/164/148 144/158/144 140/154/140
f 147/163/147 146/162/146 144/158/144 148/164/148
f 149/165/149 148/164/148 140/154/140 139/150/139
f 149/165/149 139/150/139 130/149/130
f 149/165/149 130/149/130 124/166/124 123/167/123
f 150/168/150 151/169/151 152/170/152 153/171/153
f 150/168/150 153/171/153 154/172/154
f 6/6/6 122/129/122 4/4/4 3/3/3
f 152/170/152 151/169/151 122/173/122 9/174/9
f 151/169/151 150/168/150 123/167/123
f 151/169/151 123/167/123 122/173/122
f 154/172/154 149/165/149 123/167/123 150/168/150
f 148/164/148 149/165/149 154/172/154
f 155/175/155 154/172/154 153/171/153
f 9/174/9 8/176/8 156/177/156 152/170/152
f 156/177/156 155/175/155 153/171/153 152/170/152
f 8/176/8 10/10/10 156/177/156
f 23/23/23 25/25/25 157/178/157 10/10/10
f 157/178/157 156/177/156 10/10/10
f 155/175/155 156/177/156 157/178/157
f 155/175/155 157/178/157 158/179/158
f 28/28/28 158/179/158 157/178/157 25/25/25
f 28/28/28 30/30/30 158/179/158
f 30/30/30 32/32/32 158/179/158
f 147/163/147 155/175/155 158/179/158 32/32/32
f 147/163/147 148/164/148 154/172/154 155/175/155
f 6/6/6 9/9/9 122/129/122
f 36/36/36 46/47/46 35/35/35
f 103/107/103 107/112/107 106/111/106 101/105/101
f 58/61/58 105/110/105 107/112/107 103/107/103
f 62/66/62 65/69/65 63/67/63
f 69/73/69 68/72/68 66/70/66 67/71/67
f 17/17/17 116/123/116 112/119/112
