# Blender v2.78 (sub 0) OBJ File: ''
# www.blender.org
mtllib rock3.mtl
o rocks_6_04.001
v -0.178206 2.230644 -1.119286
v 0.123400 2.222687 -1.466483
v -0.655832 2.110467 -1.495163
v -0.922745 2.146827 -1.124534
v 0.394951 2.154739 -1.432759
v 0.635834 2.119463 -0.663846
v 0.376757 2.167809 -0.476734
v 0.960362 2.025589 0.217244
v 1.089053 1.949380 0.225310
v 0.976139 2.006784 0.559226
v 1.183242 1.859675 0.590681
v 0.804504 1.896602 0.878172
v 1.457619 1.337308 1.127254
v 1.709977 0.896290 1.516755
v 0.303522 1.526217 1.586963
v 0.236289 1.312462 1.842019
v 0.584446 1.184612 1.800316
v 0.841178 0.882967 1.903306
v 1.281342 0.674466 1.943724
v 1.630759 0.389148 2.032890
v 1.809152 0.439542 1.903282
v -0.745985 1.128320 1.992376
v -0.854047 0.953724 2.002762
v -0.090946 0.576375 1.856608
v 0.468124 0.478767 1.863417
v 0.869874 0.266073 1.929245
v 1.488071 0.169019 2.009032
v -1.097623 1.265678 1.789079
v -1.469012 1.090437 1.673545
v -1.612913 1.140249 1.069334
v -1.382846 1.267049 1.152606
v -1.270191 1.717164 -0.293871
v -1.896778 1.172765 -0.135621
v -1.692847 1.443685 -0.763179
v -1.563302 1.616820 -1.167608
v -0.993301 2.083505 -1.327191
v -1.493233 1.619890 -1.574282
v -1.119203 1.706262 -1.617628
v -0.881468 2.042872 -1.432859
v -1.265091 0.646612 -2.063478
v -0.819240 0.461791 -2.155175
v 0.227035 1.669783 -1.726076
v 0.688386 1.838869 -1.541193
v 1.121410 1.489552 -1.397871
v 0.960968 1.322080 -1.556298
v 1.353235 1.056289 -1.450495
v 1.029858 0.707416 -1.616415
v 1.525874 0.704670 -1.176223
v 1.474949 0.600520 -1.208265
v 1.513219 0.464441 -0.604031
v 1.430281 0.326104 -0.704982
v 1.622713 0.286531 -0.157067
v 1.664321 0.136580 -0.018019
v 1.183314 -0.008815 -0.230040
v 1.300802 0.087575 -0.336391
v 1.601114 -0.021379 0.151525
v 1.154317 0.309243 -0.999158
v 0.467913 0.404998 -1.618139
v 0.614569 0.011008 -0.694586
v 0.754597 0.154201 -0.809657
v -0.180732 -0.034726 -1.148053
v -0.070842 0.098043 -1.332873
v -0.546343 0.143720 -1.940470
v -0.698237 -0.038369 -1.584635
v 0.043084 0.886272 -1.811220
v -1.220966 0.000034 -1.186690
v -1.425915 0.318068 -1.451871
v -1.639716 0.455812 -0.893813
v -1.346591 0.043943 -0.728051
v -1.681033 0.533374 -0.716657
v -1.265950 0.085942 0.129353
v -1.550460 1.055978 1.432757
v -1.336229 0.739091 1.686658
v -1.166952 0.161808 1.118257
v -1.073690 0.159268 1.428106
v 0.290719 0.166846 1.594512
v 0.704981 0.067146 1.708194
v 0.498571 0.008658 1.289812
v 0.975161 -0.037506 1.628756
v 1.654621 -0.053823 1.725099
v 1.964093 0.379149 1.630175
v 1.205409 1.594700 -0.468931
v 0.858571 1.818898 -0.947746
v 1.252751 1.269704 -1.016253
v 1.416264 1.027613 0.050345
vt 0.5153 0.3384
vt 0.5250 0.3526
vt 0.4947 0.3472
vt 0.4865 0.3329
vt 0.5342 0.3544
vt 0.5516 0.3298
vt 0.5425 0.3196
vt 0.5718 0.2979
vt 0.5792 0.3000
vt 0.5739 0.2845
vt 0.5842 0.2828
vt 0.5690 0.2706
vt 0.6010 0.2532
vt 0.6148 0.2279
vt 0.5533 0.2370
vt 0.5521 0.2244
vt 0.5665 0.2229
vt 0.5782 0.2133
vt 0.5961 0.2088
vt 0.6108 0.1999
vt 0.6172 0.2033
vt 0.5141 0.2125
vt 0.5113 0.2071
vt 0.5429 0.1941
vt 0.5657 0.1938
vt 0.5834 0.1892
vt 0.6078 0.1914
vt 0.4991 0.2170
vt 0.4831 0.2117
vt 0.4702 0.2351
vt 0.4814 0.2358
vt 0.4748 0.2963
vt 0.4450 0.2801
vt 0.4488 0.3109
vt 0.4535 0.3335
vt 0.4825 0.3408
vt 0.4559 0.3555
vt 0.4724 0.3569
vt 0.4859 0.3455
vt 0.4639 0.4007
vt 0.4760 0.4131
vt 0.5245 0.3730
vt 0.5438 0.3662
vt 0.5636 0.3767
vt 0.5538 0.3857
vt 0.5672 0.3972
vt 0.5526 0.4100
vt 0.5787 0.4115
vt 0.5759 0.4173
vt 0.6029 0.4161
vt 0.5992 0.4231
vt 0.6224 0.4210
vt 0.6290 0.4263
vt 0.5773 0.4659
vt 0.5802 0.4591
vt 0.5993 0.4638
vt 0.5990 0.4732
vt 0.5801 0.4406
vt 0.5651 0.4348
vt 0.5293 0.4225
vt 0.5484 0.4579
vt 0.5524 0.4494
vt 0.5112 0.4542
vt 0.5126 0.4443
vt 0.4834 0.4291
vt 0.4845 0.4470
vt 0.5135 0.4020
vt 0.4611 0.4371
vt 0.4334 0.4266
vt 0.4404 0.4102
vt 0.4190 0.4014
vt 0.4128 0.4222
vt 0.4127 0.3977
vt 0.3778 0.4213
vt 0.3897 0.3704
vt 0.4178 0.3612
vt 0.4368 0.3556
vt 0.3399 0.3763
vt 0.3251 0.3804
vt 0.3146 0.3957
vt 0.3147 0.3805
vt 0.4760 0.2205
vt 0.3377 0.4198
vt 0.3247 0.4215
vt 0.4906 0.1953
vt 0.5035 0.1691
vt 0.5596 0.1760
vt 0.5779 0.1768
vt 0.5773 0.5334
vt 0.6007 0.5378
vt 0.5918 0.5459
vt 0.5745 0.5494
vt 0.5213 0.5645
vt 0.5902 0.1727
vt 0.6192 0.1811
vt 0.6285 0.2044
vt 0.6951 0.4094
vt 0.6996 0.4307
vt 0.6360 0.4328
vt 0.5832 0.3371
vt 0.5596 0.3477
vt 0.5809 0.3848
vt 0.6007 0.3683
vt 0.6254 0.3890
vt 0.6258 0.3488
vt 0.6412 0.3509
vt 0.6668 0.3704
vt 0.6861 0.3875
vt 0.4930 0.5198
vt 0.6273 0.5301
vt 0.5128 0.5547
vt 0.4724 0.4707
vt 0.4757 0.4897
vn -0.0746 0.9944 0.0749
vn 0.1204 0.8710 -0.4763
vn -0.1658 0.7601 -0.6283
vn -0.3291 0.9409 0.0806
vn 0.3692 0.8138 -0.4489
vn 0.4480 0.8885 -0.0989
vn -0.0110 0.9911 0.1327
vn 0.3705 0.9288 -0.0057
vn 0.7392 0.6688 -0.0787
vn 0.2384 0.9352 0.2620
vn 0.7450 0.6488 0.1551
vn 0.1022 0.9018 0.4198
vn 0.7428 0.6264 0.2362
vn 0.7175 0.6178 0.3217
vn 0.1014 0.8186 0.5653
vn 0.1340 0.4510 0.8824
vn 0.2001 0.4432 0.8738
vn 0.0477 0.3232 0.9451
vn 0.1205 0.4316 0.8940
vn 0.3396 0.0581 0.9388
vn 0.7040 0.1540 0.6933
vn -0.0566 0.3899 0.9191
vn -0.2121 -0.1349 0.9679
vn -0.0123 -0.3441 0.9389
vn -0.1809 -0.2287 0.9566
vn -0.2038 -0.3557 0.9121
vn 0.1021 -0.4515 0.8864
vn -0.3526 0.7328 0.5820
vn -0.7736 0.3037 0.5562
vn -0.9296 0.2767 0.2434
vn -0.4254 0.8791 0.2150
vn -0.4496 0.8656 0.2205
vn -0.9781 0.1892 0.0868
vn -0.9001 0.4233 -0.1034
vn -0.8854 0.4502 -0.1155
vn -0.3580 0.8700 -0.3390
vn -0.7491 0.4001 -0.5280
vn -0.1772 0.4988 -0.8484
vn -0.3409 0.7598 -0.5536
vn -0.5710 -0.1327 -0.8102
vn -0.0906 -0.2750 -0.9572
vn 0.1475 0.2812 -0.9482
vn 0.5139 0.5465 -0.6612
vn 0.7218 0.5216 -0.4548
vn 0.3608 0.2025 -0.9104
vn 0.7792 0.2327 -0.5819
vn 0.3873 -0.3225 -0.8637
vn 0.9732 0.0269 -0.2286
vn 0.6925 -0.5178 -0.5023
vn 0.9871 -0.0255 -0.1578
vn 0.6847 -0.6494 -0.3308
vn 0.9637 0.1136 -0.2415
vn 0.8555 -0.3971 -0.3323
vn 0.1751 -0.9579 -0.2275
vn 0.3685 -0.8488 -0.3791
vn 0.4957 -0.8515 -0.1710
vn 0.3283 -0.8443 -0.4235
vn 0.2987 -0.6213 -0.7244
vn 0.1966 -0.9435 -0.2668
vn 0.2898 -0.8565 -0.4272
vn 0.1493 -0.9751 -0.1641
vn 0.3229 -0.8662 -0.3814
vn 0.1182 -0.6849 -0.7190
vn -0.0975 -0.9382 -0.3321
vn 0.3098 -0.0398 -0.9500
vn -0.4258 -0.8882 -0.1726
vn -0.7892 -0.4726 -0.3922
vn -0.9260 -0.3343 -0.1752
vn -0.5121 -0.8586 0.0240
vn -0.9463 -0.3205 -0.0426
vn -0.5292 -0.8403 0.1178
vn -0.9808 0.0849 0.1753
vn -0.6853 -0.4157 0.5979
vn -0.5896 -0.7970 0.1310
vn -0.4148 -0.7983 0.4367
vn -0.1738 -0.7691 0.6150
vn -0.2757 -0.7705 0.5748
vn -0.1178 -0.9845 0.1300
vn -0.1253 -0.9380 0.3232
vn 0.4248 -0.8396 0.3385
vn 0.9822 -0.0553 0.1797
vn 0.8626 0.4905 -0.1236
vn 0.6851 0.7089 -0.1676
vn 0.9291 0.3668 -0.0476
vn 0.9393 0.3218 -0.1191
usemtl rock
s 1
f 1/1/1 2/2/2 3/3/3 4/4/4
f 1/1/1 5/5/5 2/2/2
f 6/6/6 7/7/7 8/8/8 9/9/9
f 9/9/9 8/8/8 10/10/10 11/11/11
f 10/10/10 12/12/12 13/13/13 11/11/11
f 14/14/14 13/13/13 12/12/12 15/15/15
f 16/16/16 17/17/17 15/15/15
f 17/17/17 14/14/14 15/15/15
f 17/17/17 18/18/18 14/14/14
f 14/14/14 18/18/18 19/19/19
f 19/19/19 20/20/20 21/21/21 14/14/14
f 22/22/22 23/23/23 24/24/24
f 16/16/16 22/22/22 24/24/24 17/17/17
f 25/25/25 18/18/18 17/17/17 24/24/24
f 26/26/26 19/19/19 18/18/18 25/25/25
f 27/27/27 20/20/20 19/19/19 26/26/26
f 23/23/23 22/22/22 28/28/28 29/29/29
f 30/30/30 31/31/31 32/32/32 33/33/33
f 34/34/34 33/33/33 32/32/32
f 34/34/34 32/32/32 4/4/4
f 35/35/35 34/34/34 4/4/4
f 36/36/36 37/37/37 35/35/35 4/4/4
f 38/38/38 39/39/39 3/3/3
f 36/36/36 39/39/39 38/38/38 37/37/37
f 39/39/39 36/36/36 4/4/4
f 4/4/4 3/3/3 39/39/39
f 37/37/37 38/38/38 40/40/40
f 41/41/41 40/40/40 38/38/38
f 42/42/42 41/41/41 38/38/38 3/3/3
f 2/2/2 5/5/5 42/42/42 3/3/3
f 43/43/43 42/42/42 5/5/5
f 43/43/43 44/44/44 45/45/45 42/42/42
f 45/45/45 44/44/44 46/46/46 47/47/47
f 46/46/46 48/48/48 49/49/49 47/47/47
f 50/50/50 51/51/51 49/49/49 48/48/48
f 51/51/51 50/50/50 52/52/52 53/53/53
f 54/54/54 55/55/55 53/56/53 56/57/56
f 51/58/51 53/56/53 55/55/55
f 49/49/49 51/58/51 57/59/57
f 47/47/47 49/49/49 57/59/57 58/60/58
f 54/54/54 59/61/59 60/62/60 55/55/55
f 55/55/55 60/62/60 57/59/57 51/58/51
f 59/61/59 61/63/61 62/64/62 60/62/60
f 60/62/60 62/64/62 58/60/58 57/59/57
f 58/60/58 62/64/62 63/65/63
f 64/66/64 63/65/63 62/64/62 61/63/61
f 47/47/47 58/60/58 65/67/65
f 45/45/45 47/47/47 65/67/65
f 42/42/42 45/45/45 65/67/65
f 41/41/41 42/42/42 65/67/65
f 58/60/58 63/65/63 65/67/65
f 65/67/65 63/65/63 41/41/41
f 64/68/64 66/69/66 67/70/67
f 40/40/40 41/41/41 67/70/67
f 68/71/68 67/70/67 66/69/66 69/72/69
f 70/73/70 68/71/68 69/72/69 71/74/71
f 33/75/33 34/76/34 70/73/70
f 34/76/34 35/77/35 68/71/68 70/73/70
f 35/77/35 67/70/67 68/71/68
f 35/77/35 37/37/37 40/40/40 67/70/67
f 70/73/70 71/74/71 33/75/33
f 30/78/30 33/75/33 71/74/71
f 72/79/72 73/80/73 29/81/29
f 31/31/31 30/30/30 72/82/72 29/29/29
f 31/31/31 29/29/29 28/28/28
f 74/83/74 75/84/75 73/80/73
f 30/78/30 73/80/73 72/79/72
f 30/78/30 71/74/71 74/83/74 73/80/73
f 23/23/23 29/29/29 73/85/73
f 23/23/23 73/85/73 75/86/75 24/24/24
f 76/87/76 25/25/25 24/24/24
f 24/24/24 75/86/75 76/87/76
f 77/88/77 26/26/26 25/25/25 76/87/76
f 78/89/78 79/90/79 77/91/77 76/92/76
f 78/89/78 76/92/76 75/93/75
f 26/26/26 77/88/77 79/94/79
f 79/94/79 80/95/80 27/27/27 26/26/26
f 27/27/27 80/95/80 21/21/21 20/20/20
f 21/21/21 80/95/80 81/96/81
f 81/97/81 80/98/80 56/99/56 53/53/53
f 14/14/14 21/21/21 81/96/81
f 6/6/6 9/9/9 82/100/82
f 5/5/5 6/6/6 43/43/43
f 6/6/6 82/100/82 83/101/83
f 83/101/83 43/43/43 6/6/6
f 83/101/83 82/100/82 44/44/44 43/43/43
f 84/102/84 50/50/50 48/48/48
f 84/102/84 48/48/48 46/46/46 44/44/44
f 44/44/44 82/103/82 84/102/84
f 85/104/85 84/102/84 82/103/82
f 9/105/9 11/106/11 85/104/85 82/103/82
f 13/107/13 14/108/14 85/104/85 11/106/11
f 50/50/50 84/102/84 85/104/85
f 85/104/85 52/52/52 50/50/50
f 53/53/53 52/52/52 81/97/81
f 81/97/81 52/52/52 85/104/85 14/108/14
f 56/57/56 79/90/79 78/89/78 54/54/54
f 78/89/78 71/109/71 59/61/59 54/54/54
f 56/57/56 80/110/80 79/90/79
f 78/89/78 75/93/75 74/111/74
f 78/89/78 74/111/74 71/109/71
f 66/112/66 64/66/64 61/63/61 69/113/69
f 71/109/71 69/113/69 61/63/61 59/61/59
f 22/22/22 16/16/16 15/15/15 28/28/28
f 4/4/4 32/32/32 1/1/1
f 31/31/31 28/28/28 12/12/12 10/10/10
f 28/28/28 15/15/15 12/12/12
f 10/10/10 8/8/8 7/7/7 31/31/31
f 32/32/32 31/31/31 7/7/7 1/1/1
f 1/1/1 7/7/7 6/6/6 5/5/5
f 41/41/41 63/65/63 64/68/64 67/70/67
