# Blender v2.78 (sub 0) OBJ File: ''
# www.blender.org
mtllib rock6.mtl
o rocks_6_01
v -0.492056 1.302821 2.419284
v -0.008234 1.210379 2.955580
v 0.456060 1.507267 3.049382
v 0.675171 2.336699 2.824339
v -0.497693 2.520975 2.017081
v -0.751203 1.649420 2.237487
v 0.589656 2.802577 2.562751
v 0.412302 3.017649 2.178679
v -1.094023 1.997601 1.714099
v -0.941304 1.944203 1.982283
v -1.122467 1.965301 0.568349
v -1.472422 1.788431 0.633675
v -0.266990 2.767579 1.678934
v -0.392457 2.545382 0.513418
v 0.604885 2.949467 0.407501
v 0.760629 3.062781 -0.400225
v 0.031172 2.728302 -0.666796
v -1.063448 1.848257 -1.018988
v -1.697147 1.707112 -1.689896
v -1.880907 1.568560 -0.634534
v -2.398830 1.236797 -2.163611
v -2.284118 1.284341 -0.641229
v -2.361219 1.257651 -2.549469
v -1.322534 2.057914 -2.250384
v 0.066626 2.892980 -1.468840
v -0.792879 2.039186 -2.764689
v -1.583415 1.652334 -2.995954
v -1.490292 1.267652 -4.125196
v -2.560199 0.878475 -3.613546
v 0.385587 2.132968 -2.168300
v -1.085702 1.189351 -3.965800
v 1.373948 2.464330 -1.196583
v -1.660802 1.153816 0.857611
v 1.574537 2.824196 0.569247
v 1.014925 3.110940 1.336540
v 1.115058 2.845927 2.384568
v 1.543403 2.442080 2.773429
v 2.027245 2.532754 2.274911
v 1.001372 0.465065 3.862629
v 1.899248 1.139822 3.464795
v 0.666285 0.667908 3.667236
v 2.298249 2.252160 2.239511
v 2.306383 2.465709 1.956281
v 0.976376 0.122333 3.782542
v 2.103346 0.474874 3.291798
v 0.187362 0.222412 2.959028
v -0.179114 0.710008 2.698800
v -1.300409 0.777995 2.566910
v -0.667016 0.489168 2.827347
v -0.307122 0.617604 2.750731
v -0.659193 0.205068 2.735044
v -0.261146 0.166086 2.618598
v -1.132173 0.210106 2.437650
v -1.706381 0.955041 1.482322
v -1.917226 0.676596 1.038229
v -1.835534 0.188321 0.973566
v -2.472667 0.863279 -0.686962
v -2.542128 1.072353 -2.011143
v -2.310292 0.199964 -2.167966
v -2.349631 0.298269 -0.702053
v -2.341674 0.709246 -3.910301
v -2.383604 0.408356 -3.712263
v -1.823415 0.853758 -4.261781
v -1.977195 0.347070 -4.069550
v -1.582462 0.510086 -4.335140
v -1.069187 0.531642 -4.182988
v -0.494306 0.479194 -3.617682
v 0.396826 0.789194 -2.579792
v 1.030495 1.058944 -1.916878
v 0.498500 0.454900 -2.327152
v 2.183997 1.969909 -0.401893
v 1.046433 0.372874 -1.848629
v 1.716095 0.690893 -1.191923
v 1.999716 1.076641 -0.798008
v 2.364609 1.881450 0.479131
v 2.294579 2.202941 0.569762
v 2.126049 0.309662 0.561400
v 2.132513 0.009078 1.866112
v 1.905154 -0.176335 2.039309
v 1.626977 0.046612 0.557451
v 2.254007 1.209572 2.176997
v 2.310024 0.873268 1.698512
v 0.985012 -0.072085 3.440789
v 2.375122 0.549662 2.582477
v 2.170899 0.099905 2.449884
v 0.652422 0.003232 3.018390
v 1.285978 -0.033386 3.142167
v 0.122083 0.116418 2.717013
v 1.184721 -0.190055 2.887397
v -1.105579 -0.121323 1.298070
v -0.410192 -0.054711 1.735798
v 0.369702 -0.000234 1.938182
v -1.353324 -0.067246 -0.759395
v -1.691362 -0.070054 -1.984531
v -2.307062 0.192352 -2.788213
v -1.137600 0.078956 -2.430438
v -1.366568 -0.089131 -2.888786
v -0.868908 -0.014339 -3.234068
v -0.563027 0.103559 -2.991743
v -0.078675 0.397295 -2.650912
v -0.427313 0.423120 -2.276056
v 0.019327 0.374402 -1.482947
v 1.225406 0.069558 -0.520465
v 0.643789 0.233806 0.601294
vt 0.3016 0.3235
vt 0.2832 0.3573
vt 0.2616 0.3532
vt 0.2407 0.3312
vt 0.2611 0.2820
vt 0.2961 0.2982
vt 0.2338 0.3174
vt 0.2301 0.3053
vt 0.2727 0.2652
vt 0.2857 0.2777
vt 0.2559 0.2185
vt 0.2661 0.2148
vt 0.2452 0.2781
vt 0.2289 0.2343
vt 0.1946 0.2465
vt 0.1692 0.2360
vt 0.1831 0.2112
vt 0.2111 0.1647
vt 0.2078 0.1287
vt 0.2451 0.1571
vt 0.2183 0.0947
vt 0.2565 0.1490
vt 0.2048 0.0812
vt 0.1760 0.1240
vt 0.1597 0.1914
vt 0.1456 0.1221
vt 0.1637 0.0895
vt 0.1267 0.0524
vt 0.1903 0.0380
vt 0.1232 0.1726
vt 0.1106 0.0717
vt 0.1284 0.2259
vt 0.2909 0.2115
vt 0.1711 0.2744
vt 0.2031 0.2773
vt 0.2147 0.3155
vt 0.2099 0.3359
vt 0.1872 0.3314
vt 0.2379 0.4048
vt 0.2007 0.3865
vt 0.2540 0.3984
vt 0.1785 0.3369
vt 0.1795 0.3294
vt 0.2332 0.4134
vt 0.1854 0.3941
vt 0.2765 0.4214
vt 0.3072 0.3642
vt 0.3392 0.2835
vt 0.3398 0.3260
vt 0.3244 0.3447
vt 0.3961 0.2724
vt 0.3781 0.2735
vt 0.3787 0.2610
vt 0.3961 0.2515
vt 0.4013 0.2743
vt 0.3580 0.2554
vt 0.3134 0.2321
vt 0.3096 0.2069
vt 0.3214 0.1961
vt 0.2659 0.1412
vt 0.2270 0.0988
vt 0.2572 0.0769
vt 0.2821 0.1332
vt 0.1989 0.0203
vt 0.2124 0.0272
vt 0.1438 0.0308
vt 0.1705 0.0290
vt 0.2173 0.0053
vt 0.0979 0.0348
vt 0.0847 0.0469
vt 0.0693 0.0345
vt 0.0790 0.0122
vt 0.0856 0.0649
vt 0.0674 0.0956
vt 0.0614 0.1583
vt 0.0711 0.1985
vt 0.0466 0.1733
vt 0.1166 0.2654
vt 0.0486 0.2083
vt 0.0662 0.2477
vt 0.0822 0.2601
vt 0.1315 0.2909
vt 0.1414 0.2906
vt 0.0852 0.3295
vt 0.1192 0.3855
vt 0.1252 0.4034
vt 0.0655 0.3370
vt 0.1547 0.3583
vt 0.1339 0.3533
vt 0.2251 0.4222
vt 0.1567 0.3839
vt 0.1482 0.3975
vt 0.2292 0.4362
vt 0.1976 0.4227
vt 0.4144 0.2492
vt 0.4409 0.2524
vt 0.4218 0.2585
vt 0.1890 0.4311
vt 0.3516 0.2019
vt 0.3830 0.2134
vt 0.4164 0.2132
vt 0.4612 0.2411
vt 0.3193 0.1180
vt 0.2861 0.0729
vt 0.2440 0.0542
vt 0.2965 0.0439
vt 0.2743 0.0272
vt 0.0424 0.0897
vt 0.0216 0.0777
vt 0.0400 0.1097
vt 0.0077 0.1039
vt 0.0410 0.1426
vt 0.0193 0.1423
vt 0.0089 0.1889
vt 0.0340 0.2703
vt 0.4138 0.1538
vt 0.3667 0.0726
vt 0.4271 0.1015
vt 0.4533 0.1422
vt 0.4802 0.1998
vt 0.3347 0.0413
vn -0.3823 0.2562 0.8878
vn -0.6520 0.2830 0.7034
vn -0.5486 0.3878 0.7407
vn -0.2442 0.4836 0.8405
vn -0.6064 0.6304 0.4846
vn -0.3824 0.3789 0.8427
vn -0.3864 0.5618 0.7315
vn -0.2508 0.8927 0.3744
vn -0.8251 0.4716 0.3112
vn -0.6737 0.4274 0.6029
vn -0.5315 0.8463 -0.0343
vn -0.7020 0.6959 0.1516
vn -0.5109 0.8590 0.0326
vn -0.5377 0.8406 -0.0653
vn -0.1611 0.9869 -0.0118
vn 0.0746 0.9922 -0.0999
vn -0.5215 0.8507 0.0657
vn -0.5116 0.8549 0.0860
vn -0.5108 0.8541 0.0981
vn -0.4850 0.8745 0.0085
vn -0.6715 0.7409 -0.0095
vn -0.7848 0.5936 0.1778
vn -0.6690 0.7373 -0.0939
vn -0.4915 0.8649 -0.1019
vn -0.1093 0.9542 -0.2786
vn -0.0430 0.8611 -0.5067
vn -0.4393 0.8495 -0.2922
vn -0.0498 0.6665 -0.7438
vn -0.9003 0.2891 -0.3255
vn 0.4678 0.5425 -0.6978
vn 0.5033 0.4606 -0.7311
vn 0.6207 0.5783 -0.5294
vn -0.8480 0.4606 0.2622
vn 0.4655 0.8744 -0.1370
vn 0.1242 0.9922 -0.0068
vn 0.2034 0.8567 0.4741
vn 0.2677 0.6340 0.7255
vn 0.5046 0.7476 0.4318
vn -0.0552 0.0736 0.9958
vn 0.5422 0.2899 0.7887
vn -0.5063 0.1589 0.8476
vn 0.8882 0.2741 0.3688
vn 0.8343 0.5398 0.1121
vn -0.1030 -0.5843 0.8050
vn 0.7398 -0.3311 0.5857
vn -0.6818 -0.5023 0.5319
vn -0.3741 0.0083 0.9274
vn -0.6856 0.1018 0.7209
vn -0.1051 -0.0129 0.9944
vn 0.2510 0.0880 0.9640
vn -0.1208 -0.6999 0.7039
vn -0.0430 -0.7503 0.6597
vn -0.5433 -0.6705 0.5052
vn -0.9105 0.2750 0.3089
vn -0.9378 0.1160 0.3273
vn -0.7459 -0.6192 0.2453
vn -0.9781 0.0832 0.1907
vn -0.9701 0.2419 0.0178
vn -0.7576 -0.6526 0.0153
vn -0.7788 -0.6165 0.1156
vn -0.6901 0.0741 -0.7199
vn -0.7180 -0.6152 -0.3256
vn -0.3838 0.2830 -0.8790
vn -0.3686 -0.6821 -0.6315
vn 0.0001 -0.3761 -0.9266
vn 0.4680 -0.2993 -0.8315
vn 0.7005 -0.3224 -0.6367
vn 0.7096 -0.1659 -0.6848
vn 0.7037 0.0730 -0.7068
vn 0.4465 -0.7363 -0.5084
vn 0.8767 0.3144 -0.3641
vn 0.4730 -0.6817 -0.5581
vn 0.7874 -0.3540 -0.5047
vn 0.8932 -0.0941 -0.4396
vn 0.9933 0.0486 -0.1044
vn 0.8518 0.5049 -0.1401
vn 0.8097 -0.5557 -0.1887
vn 0.7914 -0.6015 -0.1087
vn 0.3143 -0.9493 0.0024
vn 0.1774 -0.9730 -0.1476
vn 0.9879 0.0815 0.1317
vn 0.9972 -0.0693 -0.0293
vn -0.0388 -0.9539 0.2975
vn 0.9824 -0.0895 0.1640
vn 0.7092 -0.6722 0.2125
vn -0.3248 -0.9317 0.1628
vn 0.2778 -0.9002 0.3354
vn -0.4276 -0.8185 0.3837
vn 0.0117 -0.9632 0.2686
vn -0.1678 -0.9809 0.0980
vn 0.0404 -0.9957 0.0839
vn -0.0763 -0.9968 -0.0249
vn -0.0449 -0.9989 -0.0153
vn -0.0734 -0.9946 -0.0736
vn -0.6717 -0.7394 -0.0446
vn 0.2264 -0.9571 0.1806
vn -0.0742 -0.9940 0.0805
vn 0.2803 -0.9281 -0.2451
vn 0.4869 -0.8727 -0.0371
vn 0.4239 -0.8913 -0.1607
vn 0.2093 -0.9764 0.0532
vn 0.0880 -0.9887 -0.1210
vn 0.1693 -0.9732 -0.1559
vn -0.0432 -0.9946 -0.0946
usemtl rock
s 1
f 1/1/1 2/2/2 3/3/3
f 4/4/4 5/5/5 6/6/6 3/3/3
f 3/3/3 6/6/6 1/1/1
f 4/4/4 7/7/7 8/8/8 5/5/5
f 9/9/9 10/10/10 5/5/5
f 9/9/9 11/11/11 12/12/12
f 13/13/13 9/9/9 5/5/5
f 14/14/14 11/11/11 9/9/9 13/13/13
f 5/5/5 8/8/8 13/13/13
f 8/8/8 15/15/15 13/13/13
f 14/14/14 13/13/13 15/15/15
f 14/14/14 15/15/15 16/16/16 17/17/17
f 14/14/14 17/17/17 18/18/18
f 19/19/19 20/20/20 18/18/18
f 19/19/19 21/21/21 22/22/22 20/20/20
f 23/23/23 21/21/21 19/19/19 24/24/24
f 24/24/24 19/19/19 18/18/18 17/17/17
f 25/25/25 24/24/24 17/17/17
f 17/17/17 16/16/16 25/25/25
f 12/12/12 11/11/11 20/20/20 22/22/22
f 11/11/11 14/14/14 18/18/18 20/20/20
f 24/24/24 25/25/25 26/26/26 27/27/27
f 23/23/23 24/24/24 27/27/27
f 27/27/27 28/28/28 29/29/29 23/23/23
f 27/27/27 26/26/26 28/28/28
f 30/30/30 31/31/31 26/26/26 25/25/25
f 32/32/32 30/30/30 25/25/25 16/16/16
f 12/12/12 22/22/22 33/33/33
f 9/9/9 12/12/12 33/33/33 10/10/10
f 34/34/34 32/32/32 16/16/16 15/15/15
f 35/35/35 34/34/34 15/15/15
f 35/35/35 15/15/15 8/8/8
f 8/8/8 7/7/7 36/36/36 35/35/35
f 36/36/36 37/37/37 38/38/38 35/35/35
f 39/39/39 40/40/40 41/41/41
f 3/3/3 41/41/41 4/4/4
f 3/3/3 2/2/2 41/41/41
f 4/4/4 37/37/37 36/36/36 7/7/7
f 40/40/40 37/37/37 4/4/4 41/41/41
f 42/42/42 43/43/43 38/38/38
f 42/42/42 38/38/38 37/37/37
f 37/37/37 40/40/40 42/42/42
f 39/39/39 44/44/44 45/45/45 40/40/40
f 44/44/44 39/39/39 41/41/41 46/46/46
f 2/2/2 1/1/1 47/47/47
f 48/48/48 6/6/6 10/10/10
f 48/48/48 1/1/1 6/6/6
f 49/49/49 50/50/50 1/1/1 48/48/48
f 50/51/50 49/52/49 51/53/51 52/54/52
f 52/54/52 47/55/47 50/51/50
f 49/52/49 48/48/48 53/56/53 51/53/51
f 54/57/54 48/48/48 10/10/10
f 10/10/10 33/33/33 54/57/54
f 55/58/55 54/57/54 33/33/33
f 54/57/54 55/58/55 53/56/53 48/48/48
f 53/56/53 55/58/55 56/59/56
f 57/60/57 55/58/55 33/33/33 22/22/22
f 22/22/22 21/21/21 58/61/58 57/60/57
f 23/23/23 29/29/29 58/61/58 21/21/21
f 57/60/57 58/61/58 59/62/59 60/63/60
f 60/63/60 56/59/56 55/58/55 57/60/57
f 61/64/61 62/65/62 29/29/29
f 28/28/28 63/66/63 61/67/61 29/29/29
f 62/65/62 61/64/61 64/68/64
f 63/69/63 65/70/65 64/71/64 61/72/61
f 65/70/65 63/69/63 28/28/28 66/73/66
f 28/28/28 31/31/31 66/73/66
f 26/26/26 31/31/31 28/28/28
f 67/74/67 66/73/66 31/31/31
f 31/31/31 30/30/30 67/74/67
f 30/30/30 32/32/32 67/74/67
f 68/75/68 67/74/67 32/32/32
f 69/76/69 70/77/70 68/75/68
f 69/76/69 68/75/68 32/32/32
f 71/78/71 69/76/69 32/32/32
f 70/77/70 69/76/69 72/79/72
f 73/80/73 72/79/72 69/76/69
f 74/81/74 73/80/73 69/76/69
f 69/76/69 71/78/71 74/81/74
f 75/82/75 74/81/74 71/78/71
f 32/32/32 34/34/34 71/78/71
f 76/83/76 75/82/75 71/78/71
f 42/42/42 75/82/75 76/83/76 43/43/43
f 76/83/76 71/78/71 34/34/34
f 35/35/35 38/38/38 43/43/43
f 34/34/34 35/35/35 43/43/43
f 34/34/34 43/43/43 76/83/76
f 74/81/74 75/82/75 77/84/77
f 73/80/73 74/81/74 77/84/77
f 78/85/78 79/86/79 80/87/80 77/84/77
f 81/88/81 42/42/42 40/40/40
f 81/88/81 75/82/75 42/42/42
f 75/82/75 81/88/81 82/89/82
f 82/89/82 77/84/77 75/82/75
f 82/89/82 78/85/78 77/84/77
f 44/44/44 46/46/46 83/90/83
f 84/91/84 82/89/82 81/88/81
f 40/40/40 45/45/45 84/91/84 81/88/81
f 78/85/78 82/89/82 84/91/84
f 79/86/79 78/85/78 85/92/85
f 78/85/78 84/91/84 85/92/85
f 85/92/85 84/91/84 45/45/45
f 83/90/83 86/93/86 87/94/87
f 86/93/86 83/90/83 46/46/46
f 88/95/88 86/96/86 46/97/46
f 2/2/2 47/47/47 46/46/46 41/41/41
f 46/97/46 47/55/47 88/95/88
f 47/55/47 52/54/52 88/95/88
f 89/98/89 87/94/87 86/93/86
f 53/56/53 56/59/56 90/99/90
f 52/54/52 51/53/51 53/56/53 90/99/90
f 52/54/52 90/99/90 91/100/91
f 92/101/92 88/95/88 52/54/52 91/100/91
f 86/96/86 88/95/88 92/101/92 89/102/89
f 56/59/56 60/63/60 93/103/93 90/99/90
f 60/63/60 59/62/59 94/104/94 93/103/93
f 95/105/95 94/104/94 59/62/59
f 95/105/95 59/62/59 58/61/58
f 95/105/95 58/61/58 29/29/29 62/65/62
f 94/104/94 95/105/95 96/106/96
f 97/107/97 96/106/96 95/105/95
f 64/68/64 97/107/97 95/105/95 62/65/62
f 66/73/66 67/74/67 98/108/98
f 66/73/66 98/108/98 65/70/65
f 97/109/97 98/108/98 99/110/99 96/111/96
f 99/110/99 100/112/100 101/113/101 96/111/96
f 99/110/99 98/108/98 67/74/67
f 68/75/68 70/77/70 100/112/100
f 67/74/67 68/75/68 100/112/100 99/110/99
f 101/113/101 100/112/100 102/114/102
f 70/77/70 72/79/72 102/114/102
f 102/114/102 100/112/100 70/77/70
f 103/115/103 102/114/102 72/79/72
f 72/79/72 73/80/73 103/115/103
f 77/84/77 80/87/80 103/115/103 73/80/73
f 104/116/104 102/117/102 103/118/103 80/119/80
f 79/120/79 89/102/89 92/101/92
f 80/119/80 79/120/79 92/101/92 104/116/104
f 85/92/85 87/94/87 89/98/89 79/86/79
f 87/94/87 85/92/85 45/45/45
f 45/45/45 83/90/83 87/94/87
f 45/45/45 44/44/44 83/90/83
f 90/99/90 104/116/104 91/100/91
f 93/103/93 102/117/102 104/116/104 90/99/90
f 94/104/94 96/106/96 101/121/101
f 94/104/94 101/121/101 102/117/102 93/103/93
f 104/116/104 92/101/92 91/100/91
f 5/5/5 10/10/10 6/6/6
f 98/108/98 97/109/97 64/71/64 65/70/65
f 50/50/50 47/47/47 1/1/1
