# Blender v2.78 (sub 0) OBJ File: ''
# www.blender.org
mtllib rock2.mtl
o rocks_6_03.001
v -0.009129 3.162064 -1.974125
v 0.042584 3.076509 -2.022578
v -0.571164 2.774138 -2.042959
v -0.708608 3.016354 -1.934494
v -0.484711 3.173926 -1.635094
v 0.906817 2.866169 -1.527438
v 0.751867 2.741136 -1.851847
v 1.557855 2.209902 -1.627105
v 1.512423 2.382483 -1.425174
v 1.728545 1.878660 -1.596103
v 1.763396 2.130230 -0.904332
v 0.931782 2.822923 -0.793768
v 1.173626 2.654554 -0.254430
v 1.722886 1.907097 0.283112
v 1.665850 1.658592 -0.012764
v 1.599731 2.222762 -0.134688
v 1.691088 1.596355 -0.329900
v 1.740041 2.126968 -0.569847
v 1.315937 2.442099 0.587474
v 1.541858 2.230302 0.986034
v 1.736836 1.900846 0.858609
v 1.735986 1.963360 1.644698
v 1.170774 1.889127 1.909291
v 1.625389 1.633593 1.857426
v 0.482461 2.232365 1.827891
v -0.492199 2.380482 1.642726
v -0.864336 2.383075 1.775949
v -0.864810 2.191010 1.901139
v -0.446665 2.036695 1.898714
v -1.216174 2.492406 1.708492
v -1.383083 2.376160 1.779082
v -1.462698 2.533474 1.461545
v -1.583577 2.351739 1.625392
v -1.597315 2.452914 1.417358
v -1.371713 2.642095 0.858360
v -1.589875 2.403680 0.791305
v -1.597267 2.399899 0.502621
v -1.265280 2.747888 0.411913
v -0.944032 2.873952 -0.260614
v -1.558171 2.216253 -0.078607
v -0.999345 3.047976 -0.926747
v -1.151979 2.914935 -0.938738
v -1.518631 1.784404 -0.563405
v -1.353633 2.423823 -1.469418
v -1.487911 2.084162 -1.469427
v -1.224245 2.398619 -1.795479
v -1.330941 1.847768 -1.854206
v -1.481450 1.896682 -1.655074
v -0.905829 3.015733 -1.237804
v -0.719299 3.036959 -1.360162
v -0.931163 2.779640 -1.540313
v -1.036102 2.760877 -1.412624
v -1.159645 2.693750 -1.246595
v 1.613111 1.404434 -1.636154
v 1.199575 1.621412 -1.800928
v 1.354321 0.909927 -1.620954
v 0.244658 0.894880 -1.878713
v 0.690580 0.596167 -1.605000
v 1.244029 0.726740 -1.579987
v 0.006778 0.311642 -1.443015
v -0.305625 0.088600 -1.279770
v -0.055015 0.590346 -1.812919
v -1.292872 -0.215160 -1.046518
v -1.330755 0.033407 -1.397291
v -1.119650 0.237534 -1.583783
v -0.618674 -0.320332 -0.818672
v 1.441791 0.263755 -0.748221
v 1.492013 0.751667 -1.122522
v 1.537030 0.681274 -0.704698
v 1.307115 0.401772 -1.088780
v 1.753067 1.703481 -0.937831
v 1.676924 1.245438 0.814155
v 1.557488 0.886041 0.354417
v 1.630813 0.596157 1.659736
v 1.553209 0.280540 1.181499
v 1.356297 0.347844 1.780939
v 1.409462 0.042355 1.657587
v 1.480662 0.016401 1.445050
v 1.402675 -0.126176 0.205130
v 1.287423 -0.222519 0.076377
v 1.467610 0.310979 -0.504974
v 1.221747 -0.206249 -0.171530
v 1.330128 -0.171203 1.011076
v 0.999173 -0.196861 1.194550
v 1.004589 -0.164570 1.621805
v 0.000704 0.015059 1.741485
v -0.026688 -0.155440 1.642540
v -0.983457 0.321570 1.749813
v -1.308120 -0.134151 1.403777
v -1.541099 0.443432 1.642287
v -1.277801 0.756265 1.788269
v -1.619707 1.069533 1.741136
v 0.402177 2.101592 1.909086
v 0.083022 2.172172 1.858161
v 0.599223 1.511883 1.885997
v 0.089407 2.297448 1.764178
v -1.482363 0.543552 0.196974
v -1.307503 -0.150473 -0.653034
v -1.202222 -0.194650 -0.126456
v -1.144707 1.040199 -1.816147
v -0.256263 1.126633 -1.975868
v -0.065903 1.604569 -2.033124
v -1.209280 -0.183672 0.969850
v -0.030551 -0.260464 1.224267
v 0.892085 -0.362747 -0.082064
v 0.174198 -0.305199 -0.621373
v 0.175597 2.986217 -0.995006
vt 0.2065 0.7061
vt 0.2038 0.7197
vt 0.1805 0.7185
vt 0.1780 0.7118
vt 0.1865 0.7013
vt 0.2441 0.7095
vt 0.2346 0.7205
vt 0.2740 0.7358
vt 0.2720 0.7227
vt 0.2898 0.7419
vt 0.2905 0.7061
vt 0.2554 0.6824
vt 0.2651 0.6672
vt 0.3030 0.6513
vt 0.3130 0.6665
vt 0.2888 0.6692
vt 0.3145 0.6822
vt 0.2914 0.6905
vt 0.2746 0.6347
vt 0.2863 0.6188
vt 0.3032 0.6260
vt 0.3007 0.5921
vt 0.2814 0.5708
vt 0.3118 0.5808
vt 0.2454 0.5764
vt 0.1986 0.5820
vt 0.1817 0.5765
vt 0.1835 0.5676
vt 0.2039 0.5637
vt 0.1649 0.5791
vt 0.1582 0.5736
vt 0.1526 0.5873
vt 0.1448 0.5763
vt 0.1446 0.5874
vt 0.1560 0.6135
vt 0.1412 0.6148
vt 0.1395 0.6268
vt 0.1595 0.6326
vt 0.1703 0.6623
vt 0.1306 0.6516
vt 0.1701 0.6811
vt 0.1619 0.6870
vt 0.1138 0.6796
vt 0.1459 0.7160
vt 0.1320 0.7225
vt 0.1515 0.7263
vt 0.1397 0.7468
vt 0.1282 0.7380
vt 0.1715 0.6921
vt 0.1795 0.6971
vt 0.1637 0.7049
vt 0.1612 0.7031
vt 0.1559 0.6999
vt 0.2791 0.7743
vt 0.2583 0.7662
vt 0.2619 0.8015
vt 0.2111 0.7959
vt 0.2290 0.8151
vt 0.2545 0.8131
vt 0.1962 0.8258
vt 0.1802 0.8365
vt 0.1938 0.8071
vt 0.1332 0.8480
vt 0.1319 0.8271
vt 0.1434 0.8173
vt 0.1627 0.8609
vt 0.3720 0.7037
vt 0.3484 0.7203
vt 0.3537 0.7003
vt 0.3662 0.7210
vt 0.3520 0.7432
vt 0.3422 0.7437
vt 0.3167 0.7425
vt 0.3060 0.7107
vt 0.3316 0.6294
vt 0.3471 0.6515
vt 0.3592 0.5929
vt 0.3740 0.6143
vt 0.3732 0.5846
vt 0.3867 0.5933
vt 0.3868 0.6039
vt 0.3912 0.6598
vt 0.3969 0.6665
vt 0.3708 0.6917
vt 0.3968 0.6785
vt 0.3964 0.6243
vt 0.2296 0.9540
vt 0.2448 0.9466
vt 0.2517 0.9674
vt 0.2483 0.9767
vt 0.2285 0.9729
vt 0.2799 0.4737
vt 0.2969 0.4848
vt 0.2930 0.4991
vt 0.2344 0.4773
vt 0.2339 0.4687
vt 0.1886 0.4855
vt 0.1758 0.4596
vt 0.1622 0.4868
vt 0.1724 0.5030
vt 0.1544 0.5154
vt 0.2433 0.5706
vt 0.2275 0.5721
vt 0.2543 0.5466
vt 0.2264 0.5781
vt 0.2997 0.5588
vt 0.0601 0.6463
vt 0.0293 0.6861
vt 0.0254 0.6619
vt 0.1309 0.8659
vt 0.1345 0.8898
vt 0.0404 0.7244
vt 0.0270 0.7061
vt 0.1458 0.7810
vt 0.1867 0.7836
vt 0.1975 0.7675
vt 0.1265 0.9577
vt 0.1320 0.9386
vt 0.1837 0.9526
vt 0.1828 0.9716
vt 0.2439 0.8922
vt 0.2457 0.9048
vt 0.2276 0.8971
vt 0.1977 0.8715
vt 0.2540 0.8422
vt 0.2584 0.8600
vt 0.0245 0.6132
vt 0.0548 0.5819
vt 0.0275 0.5936
vt 0.0831 0.5761
vt 0.2222 0.6859
vn 0.0949 0.8634 -0.4955
vn 0.1950 0.3690 -0.9087
vn -0.1869 0.1319 -0.9735
vn -0.5146 0.6557 -0.5525
vn -0.2489 0.9680 0.0311
vn 0.5020 0.8382 -0.2133
vn 0.4160 0.4039 -0.8147
vn 0.6632 0.3775 -0.6463
vn 0.7249 0.6587 -0.2013
vn 0.8260 0.0793 -0.5580
vn 0.9266 0.3760 -0.0026
vn 0.3592 0.9252 0.1223
vn 0.4298 0.8923 0.1379
vn 0.9767 0.2102 -0.0440
vn 0.9992 -0.0292 -0.0270
vn 0.8698 0.4853 0.0887
vn 0.9934 -0.0687 0.0923
vn 0.9215 0.3667 0.1279
vn 0.4709 0.8637 0.1796
vn 0.5706 0.8096 0.1381
vn 0.9698 0.2414 -0.0348
vn 0.7496 0.5058 0.4269
vn 0.1807 0.4297 0.8847
vn 0.6480 0.0220 0.7613
vn 0.1483 0.7764 0.6125
vn 0.1040 0.8626 0.4950
vn 0.1484 0.7703 0.6202
vn 0.0187 0.2750 0.9613
vn 0.0205 0.2319 0.9725
vn 0.0676 0.9129 0.4026
vn -0.3698 0.4372 0.8198
vn -0.2842 0.9211 0.2662
vn -0.8074 0.3516 0.4739
vn -0.8637 0.4889 0.1226
vn -0.3548 0.9284 0.1102
vn -0.9438 0.3303 -0.0078
vn -0.9319 0.3558 -0.0704
vn -0.3902 0.9202 0.0318
vn -0.2821 0.9392 0.1959
vn -0.9502 0.2839 -0.1283
vn -0.3480 0.9367 0.0375
vn -0.7799 0.6226 -0.0643
vn -0.9961 0.0467 -0.0750
vn -0.8527 0.4739 -0.2197
vn -0.9469 0.2581 -0.1919
vn -0.7080 0.3801 -0.5953
vn -0.5877 0.0061 -0.8091
vn -0.8850 0.1707 -0.4331
vn -0.3921 0.8758 -0.2814
vn -0.3274 0.9438 -0.0450
vn -0.6785 0.6918 -0.2471
vn -0.6735 0.6418 -0.3668
vn -0.6053 0.6882 -0.3999
vn 0.7440 -0.2272 -0.6284
vn 0.2650 -0.0500 -0.9630
vn 0.5496 -0.4030 -0.7318
vn 0.1737 -0.3497 -0.9206
vn 0.1824 -0.6621 -0.7269
vn 0.4137 -0.5552 -0.7215
vn 0.2281 -0.7417 -0.6307
vn 0.1535 -0.7668 -0.6233
vn 0.2008 -0.5491 -0.8113
vn -0.5796 -0.7700 -0.2667
vn -0.5906 -0.5995 -0.5402
vn -0.1707 -0.5183 -0.8380
vn -0.0112 -0.9557 -0.2940
vn 0.7801 -0.5474 -0.3029
vn 0.8937 -0.3550 -0.2744
vn 0.9780 -0.2007 -0.0576
vn 0.5181 -0.6713 -0.5301
vn 0.9915 -0.1302 -0.0081
vn 0.9910 -0.1276 -0.0401
vn 0.9851 -0.1628 -0.0563
vn 0.8592 -0.2741 0.4321
vn 0.9749 -0.2211 0.0264
vn 0.4236 -0.2689 0.8650
vn 0.6373 -0.4583 0.6195
vn 0.8221 -0.5187 0.2345
vn 0.8568 -0.5103 -0.0743
vn 0.5684 -0.8161 -0.1045
vn 0.9557 -0.2924 -0.0351
vn 0.5463 -0.7727 -0.3231
vn 0.4423 -0.8903 0.1083
vn 0.1663 -0.9785 0.1218
vn 0.1774 -0.8036 0.5682
vn -0.0394 -0.3183 0.9472
vn -0.0595 -0.7852 0.6164
vn -0.1334 -0.3070 0.9423
vn -0.5957 -0.7313 0.3322
vn -0.7727 -0.3403 0.5359
vn -0.1551 -0.1343 0.9787
vn -0.7912 -0.0654 0.6081
vn -0.0472 0.2340 0.9711
vn -0.0298 0.3807 0.9242
vn -0.0079 -0.0661 0.9978
vn 0.0247 0.8325 0.5535
vn -0.9803 -0.1939 -0.0382
vn -0.7217 -0.6903 0.0510
vn -0.5851 -0.8084 0.0642
vn -0.4221 -0.1872 -0.8870
vn -0.0582 -0.1898 -0.9801
vn 0.0377 -0.0685 -0.9969
vn -0.5572 -0.8303 -0.0090
vn -0.0292 -0.9894 0.1424
vn 0.1945 -0.9699 -0.1467
vn 0.1627 -0.8945 -0.4165
vn 0.1125 0.9681 0.2237
usemtl rock
s 1
f 1/1/1 2/2/2 3/3/3 4/4/4
f 5/5/5 1/1/1 4/4/4
f 1/1/1 6/6/6 7/7/7 2/2/2
f 8/8/8 7/7/7 6/6/6 9/9/9
f 10/10/10 8/8/8 9/9/9 11/11/11
f 12/12/12 9/9/9 6/6/6
f 13/13/13 11/11/11 9/9/9 12/12/12
f 14/14/14 15/15/15 16/16/16
f 16/16/16 15/15/15 17/17/17 18/18/18
f 16/16/16 18/18/18 11/11/11 13/13/13
f 19/19/19 14/14/14 16/16/16 13/13/13
f 19/19/19 20/20/20 21/21/21 14/14/14
f 21/21/21 20/20/20 22/22/22
f 23/23/23 24/24/24 22/22/22
f 23/23/23 20/20/20 19/19/19
f 23/23/23 22/22/22 20/20/20
f 25/25/25 23/23/23 19/19/19
f 26/26/26 27/27/27 28/28/28 29/29/29
f 28/28/28 27/27/27 30/30/30 31/31/31
f 31/31/31 30/30/30 32/32/32 33/33/33
f 33/33/33 32/32/32 34/34/34
f 35/35/35 36/36/36 34/34/34 32/32/32
f 37/37/37 36/36/36 35/35/35 38/38/38
f 38/38/38 39/39/39 40/40/40 37/37/37
f 39/39/39 41/41/41 42/42/42 40/40/40
f 40/40/40 42/42/42 43/43/43
f 44/44/44 43/43/43 42/42/42
f 43/43/43 44/44/44 45/45/45
f 46/46/46 47/47/47 44/44/44
f 47/47/47 48/48/48 45/45/45 44/44/44
f 49/49/49 50/50/50 51/51/51 52/52/52
f 51/51/51 50/50/50 5/5/5 4/4/4
f 49/49/49 42/42/42 41/41/41
f 53/53/53 49/49/49 52/52/52
f 42/42/42 49/49/49 53/53/53
f 53/53/53 44/44/44 42/42/42
f 53/53/53 52/52/52 44/44/44
f 4/4/4 46/46/46 51/51/51
f 51/51/51 46/46/46 44/44/44 52/52/52
f 3/3/3 47/47/47 46/46/46 4/4/4
f 10/10/10 54/54/54 55/55/55 8/8/8
f 7/7/7 8/8/8 55/55/55
f 56/56/56 57/57/57 55/55/55 54/54/54
f 58/58/58 57/57/57 56/56/56 59/59/59
f 58/58/58 60/60/60 57/57/57
f 60/60/60 61/61/61 62/62/62 57/57/57
f 63/63/63 64/64/64 65/65/65 66/66/66
f 65/65/65 62/62/62 61/61/61 66/66/66
f 67/67/67 68/68/68 69/69/69
f 70/70/70 68/68/68 67/67/67
f 68/68/68 70/70/70 59/71/59 56/72/56
f 68/68/68 56/72/56 54/73/54
f 10/10/10 11/11/11 71/74/71
f 18/18/18 17/17/17 71/74/71 11/11/11
f 71/74/71 68/68/68 54/73/54 10/10/10
f 69/69/69 68/68/68 71/74/71 17/17/17
f 15/15/15 14/14/14 72/75/72 73/76/73
f 72/75/72 74/77/74 75/78/75 73/76/73
f 24/24/24 74/77/74 72/75/72 22/22/22
f 14/14/14 21/21/21 72/75/72
f 21/21/21 22/22/22 72/75/72
f 75/78/75 74/77/74 76/79/76
f 76/79/76 77/80/77 78/81/78 75/78/75
f 73/76/73 69/69/69 17/17/17 15/15/15
f 79/82/79 80/83/80 81/84/81
f 67/67/67 69/69/69 81/84/81
f 81/84/81 80/83/80 82/85/82 67/67/67
f 73/76/73 79/82/79 81/84/81 69/69/69
f 75/78/75 78/81/78 79/82/79
f 73/76/73 75/78/75 79/82/79
f 83/86/83 80/83/80 79/82/79 78/81/78
f 84/87/84 83/88/83 78/89/78
f 78/89/78 77/90/77 85/91/85 84/87/84
f 85/92/85 77/93/77 76/94/76
f 86/95/86 87/96/87 85/92/85 76/94/76
f 87/96/87 86/95/86 88/97/88 89/98/89
f 90/99/90 89/98/89 88/97/88 91/100/91
f 92/101/92 90/99/90 91/100/91
f 31/31/31 33/33/33 92/101/92
f 28/28/28 31/31/31 92/101/92 91/100/91
f 23/23/23 25/25/25 93/102/93
f 93/102/93 94/103/94 95/104/95
f 96/105/96 94/103/94 93/102/93 25/25/25
f 96/105/96 26/26/26 29/29/29 94/103/94
f 95/104/95 94/103/94 29/29/29
f 23/23/23 93/102/93 95/104/95 24/106/24
f 76/79/76 74/77/74 24/24/24
f 95/104/95 76/94/76 24/106/24
f 91/100/91 88/97/88 29/29/29 28/28/28
f 86/95/86 76/94/76 95/104/95
f 86/95/86 95/104/95 29/29/29
f 88/97/88 86/95/86 29/29/29
f 97/107/97 98/108/98 99/109/99
f 98/110/98 63/63/63 66/66/66 99/111/99
f 64/112/64 63/113/63 43/43/43
f 63/113/63 98/108/98 97/107/97 43/43/43
f 43/43/43 45/45/45 48/48/48 64/112/64
f 62/62/62 65/65/65 100/114/100 101/115/101
f 48/48/48 47/47/47 100/114/100
f 100/114/100 65/65/65 64/64/64 48/48/48
f 102/116/102 47/47/47 3/3/3
f 3/3/3 2/2/2 102/116/102
f 57/57/57 62/62/62 101/115/101 102/116/102
f 55/55/55 57/57/57 102/116/102
f 7/7/7 55/55/55 102/116/102 2/2/2
f 89/117/89 103/118/103 104/119/104 87/120/87
f 85/91/85 87/120/87 104/119/104 84/87/84
f 82/121/82 80/122/80 105/123/105
f 82/121/82 105/123/105 106/124/106
f 106/124/106 105/123/105 66/66/66
f 106/124/106 66/66/66 61/61/61 60/60/60
f 59/59/59 70/125/70 58/58/58
f 70/125/70 67/126/67 82/121/82 106/124/106
f 70/125/70 60/60/60 58/58/58
f 70/125/70 106/124/106 60/60/60
f 103/127/103 97/107/97 99/109/99
f 90/128/90 97/107/97 103/127/103 89/129/89
f 90/128/90 92/130/92 97/107/97
f 34/34/34 97/107/97 92/130/92 33/33/33
f 37/37/37 40/40/40 43/43/43 97/107/97
f 36/36/36 97/107/97 34/34/34
f 36/36/36 37/37/37 97/107/97
f 32/32/32 30/30/30 27/27/27 26/26/26
f 35/35/35 32/32/32 26/26/26
f 107/131/107 49/49/49 41/41/41
f 50/50/50 49/49/49 107/131/107
f 5/5/5 50/50/50 107/131/107
f 12/12/12 6/6/6 1/1/1
f 1/1/1 5/5/5 107/131/107 12/12/12
f 12/12/12 39/39/39 13/13/13
f 39/39/39 38/38/38 19/19/19
f 38/38/38 35/35/35 19/19/19
f 35/35/35 26/26/26 96/105/96 19/19/19
f 107/131/107 41/41/41 39/39/39 12/12/12
f 39/39/39 19/19/19 13/13/13
f 80/122/80 84/87/84 105/123/105
f 104/119/104 103/118/103 99/111/99 66/66/66
f 66/66/66 105/123/105 104/119/104
f 105/123/105 84/87/84 104/119/104
f 80/122/80 83/88/83 84/87/84
f 96/105/96 25/25/25 19/19/19
f 102/116/102 101/115/101 100/114/100 47/47/47
